<?xml version="1.0" encoding="UTF-8" standalone="no"?>
<!-- Created with Inkscape (http://www.inkscape.org/) -->
<svg
   xmlns:dc="http://purl.org/dc/elements/1.1/"
   xmlns:cc="http://web.resource.org/cc/"
   xmlns:rdf="http://www.w3.org/1999/02/22-rdf-syntax-ns#"
   xmlns:svg="http://www.w3.org/2000/svg"
   xmlns="http://www.w3.org/2000/svg"
   xmlns:xlink="http://www.w3.org/1999/xlink"
   xmlns:sodipodi="http://sodipodi.sourceforge.net/DTD/sodipodi-0.dtd"
   xmlns:inkscape="http://www.inkscape.org/namespaces/inkscape"
   width="283.03455"
   height="381.38879"
   id="svg2"
   sodipodi:version="0.32"
   inkscape:version="0.45"
   sodipodi:docname="dexter.svg"
   sodipodi:docbase="/home/cdodt/Desktop"
   inkscape:output_extension="org.inkscape.output.svg.inkscape"
   version="1.0"
   sodipodi:modified="true">
  <defs
     id="defs4" />
  <sodipodi:namedview
     id="base"
     pagecolor="#ffffff"
     bordercolor="#666666"
     borderopacity="1.0"
     gridtolerance="10000"
     guidetolerance="10"
     objecttolerance="10"
     inkscape:pageopacity="0.0"
     inkscape:pageshadow="2"
     inkscape:zoom="1"
     inkscape:cx="171.16823"
     inkscape:cy="224.43097"
     inkscape:document-units="px"
     inkscape:current-layer="layer5"
     inkscape:window-width="1169"
     inkscape:window-height="716"
     inkscape:window-x="101"
     inkscape:window-y="25"
     showgrid="false" />
  <metadata
     id="metadata7">
    <rdf:RDF>
      <cc:Work
         rdf:about="">
        <dc:format>image/svg+xml</dc:format>
        <dc:type
           rdf:resource="http://purl.org/dc/dcmitype/StillImage" />
      </cc:Work>
    </rdf:RDF>
  </metadata>
  <g
     inkscape:groupmode="layer"
     id="layer11"
     inkscape:label="bitmap"
     style="display:inline">
    <image
       style="fill:#000000;fill-opacity:1;stroke:#000000;stroke-opacity:1;display:inline"
       y="-1.3708906"
       x="-329.95874"
       id="image2218"
       height="380"
       width="288.16666"
       sodipodi:absref="/home/cdodt/Desktop/dexter.png"
       xlink:href="dexter.png" />
  </g>
  <g
     inkscape:label="white"
     inkscape:groupmode="layer"
     id="layer1"
     transform="translate(-459.01793,-83.297895)"
     style="display:inline">
    <path
       style="fill:#ffffff;fill-opacity:1;fill-rule:evenodd;stroke:#000000;stroke-width:1px;stroke-linecap:butt;stroke-linejoin:miter;stroke-opacity:0.0802139;display:inline"
       d="M 579.55988,405.09262 C 571.11352,405.94803 556.21191,408.08418 558.20899,394.64288 C 562.21636,384.9462 566.20202,375.46939 568.24392,365.05306 C 572.17458,353.91754 561.85565,345.75174 557.31623,336.71622 C 550.09443,328.64016 548.16073,317.76412 542.08204,309.03003 C 534.15215,301.87882 527.50624,293.37221 523.20742,283.49835 C 514.8038,271.51369 505.5285,259.35959 501.71347,244.96069 C 504.6522,232.36723 519.50142,247.10693 523.7631,252.58188 C 530.52639,261.57496 538.30614,270.12175 542.02568,280.98485 C 553.18214,292.57012 558.1398,308.20846 564.29779,322.65516 C 572.76489,330.77917 577.72454,341.24787 582.56944,351.88959 C 586.95265,361.78545 597.7527,364.66398 607.50411,366.15328 C 619.72771,369.78266 632.26694,372.40936 644.42855,376.28539 C 653.4765,381.60307 663.80591,374.68115 673.43585,374.78913 C 681.68554,372.21741 693.74449,370.79459 695.11647,381.91073 C 699.09336,386.65486 700.68941,394.68835 691.91338,393.91807 C 680.99819,393.48888 672.37918,402.14 661.5347,399.90348 C 651.88712,399.5792 642.41762,398.12875 632.79524,398.65352 C 622.51806,403.35288 611.19818,404.42821 599.8684,404.18001 C 592.5558,401.83984 585.86925,411.75035 579.55988,405.09262 z "
       id="path2214"
       inkscape:export-filename="/home/cdodt/Desktop/dexter300x405.png"
       inkscape:export-xdpi="95.901169"
       inkscape:export-ydpi="95.901169" />
    <path
       style="fill:#ffffff;fill-rule:evenodd;stroke:#000000;stroke-width:1px;stroke-linecap:butt;stroke-linejoin:miter;stroke-opacity:0.09625668;fill-opacity:1"
       d="M 152.38446,100.43262 C 152.28812,98.288097 151.0673,94.735671 150.41434,92.123854 C 150.19448,91.244406 150.07171,90.28897 150.07171,89.382818 C 150.07171,87.701584 149.49863,85.087721 149.21514,83.386802 C 149.07738,82.560263 148.87251,81.84887 148.87251,80.988396 C 148.87251,80.178006 149.14686,80.123134 149.81474,79.789192 C 150.62382,79.384655 151.57884,78.316762 151.95618,77.562101 C 152.18383,77.106789 152.51898,76.656664 152.81275,76.362898 C 153.18527,75.990377 154.28229,76.105925 154.86853,76.105925 C 156.12659,76.105925 157.20699,76.27724 158.46614,76.27724 C 160.5479,76.27724 163.23969,81.29614 164.11952,82.615886 C 164.56648,83.286328 164.46215,83.987925 164.46215,84.75732 C 164.46215,86.898754 164.46215,89.040188 164.46215,91.181623 C 164.46215,93.69187 160.66751,98.488215 158.72311,100.43262 C 158.0432,101.11252 157.39486,101.21438 156.75299,101.37485 C 156.34613,101.47656 155.73943,101.36058 155.38247,101.28919 C 154.90732,101.19416 154.52279,101.11788 154.01195,101.11788 C 153.52596,101.11788 153.15548,101.0751 152.89841,100.94656 C 152.41337,100.70404 152.72225,101.27709 152.38446,100.43262 z "
       id="path2176"
       transform="translate(459.01793,83.297895)"
       inkscape:export-filename="/home/cdodt/Desktop/dexter300x405.png"
       inkscape:export-xdpi="95.901169"
       inkscape:export-ydpi="95.901169" />
  </g>
  <g
     inkscape:groupmode="layer"
     id="layer10"
     inkscape:label="flesh"
     style="display:inline">
    <path
       style="fill:#fbcf9b;display:inline"
       d="M 160.40625,142.21875 C 159.70363,142.21875 157.13944,143.61358 156.21875,143.84375 C 154.41529,144.29461 152.71648,145.70045 150.75,146.09375 C 149.04917,146.43391 148.04312,147.51937 147.21875,148.34375 C 146.50261,149.05989 145.83896,151.01916 145.625,151.875 C 145.34034,153.01366 145.04401,154.07529 144.75,155.15625 C 145.73893,155.75965 146.78819,156.36284 148,156.96875 C 150.76404,158.35077 153.34876,158.84874 155.59375,161.09375 C 157.44739,162.94739 161.03321,166.90722 163.15625,167.96875 C 165.86953,169.32539 169.07973,171.85588 172.78125,172.78125 C 173.51778,172.96538 176.1924,173.95815 178.4375,175.09375 C 178.3159,174.8519 178.21196,174.61143 178.09375,174.375 C 177.69548,173.57845 177.32129,172.72269 176.96875,171.84375 C 176.71496,171.70384 176.46073,171.5643 176.25,171.40625 C 174.02222,169.73542 171.40625,168.20034 171.40625,163.84375 C 171.40625,160.40161 171.40625,156.97338 171.40625,153.53125 C 171.40625,152.4961 171.48627,151.35107 171.53125,150.1875 C 171.13132,148.87187 170.58258,147.50892 170.03125,146.40625 C 168.97573,144.2952 166.79154,143.9739 165.21875,143.1875 C 163.66647,142.41136 162.23194,142.21875 160.40625,142.21875 z M 206.09375,166.78125 C 205.03755,166.76599 204.45194,167.29806 203.46875,168.28125 C 202.35785,169.39216 200.20606,169.25318 198.96875,169.5625 C 197.89799,169.83018 196.46666,171.72084 195.75,172.4375 C 194.49756,173.68993 193.66335,174.21165 192.53125,175.34375 C 191.44822,176.42679 188.89582,177.00521 187.71875,177.59375 C 185.99133,178.45747 184.18872,178.69122 181.90625,178.28125 C 182.71701,181.68175 183.125,184.70279 183.125,188.625 C 183.125,192.75556 183.125,196.90069 183.125,201.03125 C 183.125,205.60428 181.99131,206.94095 181.0625,210.65625 C 180.63406,212.37002 178.32973,217.01132 176.25,217.53125 C 172.59756,218.44436 170.07089,219.59375 165.90625,219.59375 C 161.43906,219.59375 160.53212,218.4221 156.96875,217.53125 C 153.51055,216.6667 151.05446,215.54487 148,214.78125 C 147.72106,214.71152 138.67627,214.49546 138.375,214.09375 C 136.65256,211.79717 133.06487,206.72113 130.8125,204.46875 C 128.63537,202.29163 126.54816,199.40883 124.59375,195.5 C 123.09951,192.51153 125.08521,186.68536 121.84375,185.875 C 121.59108,185.81183 120.43262,182.47363 117.03125,185.875 C 114.85204,188.05421 111.74638,189.20493 108.78125,190.6875 C 108.0464,191.05492 105.70544,191.50267 103.5625,192.03125 C 102.90312,192.31144 102.21235,192.52504 101.5625,192.6875 C 101.00941,192.82577 100.58493,193.00973 100.15625,193.1875 C 100.13851,193.19846 100.11075,193.20772 100.09375,193.21875 C 99.977248,193.29432 99.891316,193.35868 99.8125,193.4375 C 97.284536,195.96547 95.139929,196.62943 92.9375,198.28125 C 90.983365,199.74685 88.759058,200.52487 86.34375,202 C 87.06024,202.93763 87.330474,203.78595 88.0625,205.25 C 88.711781,206.54857 88.961766,208.36569 90,209.75 C 90.790439,210.80392 90.333834,213.59291 91.611519,214.87059 C 92.941231,216.20031 93.850299,218.07595 94.499876,219.37512 C 95.139061,220.65348 97.657392,220.50228 98.375,221.9375 C 99.233143,223.65379 99.852126,225.2355 100.625,226.78125 C 101.09574,227.72272 101.87609,229.62719 102.53125,230.9375 C 103.87561,233.62622 105.88486,236.91528 106.71875,239 C 107.55081,241.08015 108.93265,242.36852 110.25,244.125 C 111.54931,245.85741 113.01102,248.07532 113.46875,249.90625 C 113.92173,251.71815 114.19381,253.63762 115.0625,255.375 C 115.71388,256.67775 116.51452,258.27905 117.3125,259.875 C 118.00769,261.26537 120.49149,262.84101 120.875,264.375 C 121.29794,266.06678 121.84375,266.54248 121.84375,268.5625 C 121.84375,268.90499 121.81576,269.24705 121.8125,269.59375 C 122.90405,271.24907 123.91268,272.73685 124.78125,274 C 125.28757,274.29296 125.8197,274.52524 126.34375,274.65625 C 127.36186,274.91078 129.22067,276.53903 130.5,277.5625 C 132.28416,278.98983 132.44049,279.67338 134.03125,280.46875 C 135.84799,281.37711 137.72578,280.73183 139.5,282.0625 C 141.03529,283.21396 142.2381,283.32939 143.8125,283.78125 C 144.01831,283.7596 144.20717,283.81691 144.375,283.96875 C 144.38695,283.97956 144.39451,283.98826 144.40625,284 C 144.41612,284.00323 144.4276,283.99674 144.4375,284 C 144.71045,284.0898 144.97936,284.19174 145.28125,284.3125 C 145.81699,284.52679 146.37051,284.75445 146.90625,284.96875 C 147.93142,285.37882 148.83111,285.76906 149.71875,286.15625 C 149.74916,286.16473 149.78194,286.17904 149.8125,286.1875 C 151.37458,286.62007 153.13987,287.02345 154.90625,287.34375 C 156.55902,287.64345 158.5675,288.13654 160.65625,288.75 C 161.89512,288.75627 163.09744,288.83686 164.25,289.125 C 166.29839,289.63709 168.2233,291.4152 170.6875,292.03125 C 172.43958,292.46928 174.94735,292.03125 176.78125,292.03125 C 178.45174,292.03126 180.10435,293.625 182.25,293.625 C 184.6864,293.625 186.75794,293.44841 189,293 C 190.46936,292.70612 192.33972,293 193.84375,293 C 195.71661,292.99999 197.58232,293.08098 199.28125,292.65625 C 200.69085,292.30386 202.7593,292.60704 203.8125,292.34375 C 205.53812,291.91235 207.09335,292.10166 208.625,291.71875 C 210.29318,291.30171 212.62499,289.31251 213.4375,288.5 C 214.67771,287.25977 215.09381,286.53122 216.34375,285.90625 C 218.25844,284.94892 218.87099,283.60257 221.15625,283.03125 C 222.52714,282.68852 224.3831,281.73032 225.65625,281.09375 C 226.94522,280.44927 227.57593,278.86157 228.21875,278.21875 C 229.15919,277.27829 230.06134,276.31405 230.8125,275.3125 C 231.72289,274.09866 233.08966,273.34784 234.34375,272.09375 C 235.52277,270.91473 236.58573,270.47857 237.875,270.15625 C 238.95823,269.88544 239.76608,267.34283 240.125,266.625 C 240.67587,265.52325 242.03277,264.07088 243,262.78125 C 244.20868,261.16967 245.12068,260.03557 246.5625,258.59375 C 247.83111,257.32513 249.0401,256.9646 249.4375,255.375 C 249.80156,253.91878 250.15134,252.66608 250.71875,251.53125 C 251.43167,250.10541 252.07567,248.8174 252.65625,247.65625 C 253.29455,246.37964 253.79285,245.35178 254.25,244.4375 C 254.95651,243.02446 255.7681,241.61511 256.1875,239.9375 C 256.48524,238.74652 256.5,237.06684 256.5,235.4375 C 256.5,233.67782 256.84375,232.34113 256.84375,230.625 C 256.84376,229.01777 256.84375,227.41973 256.84375,225.8125 C 256.84376,224.14938 255.92927,222.46707 255.5625,221 C 255.05554,218.97214 254.11872,216.84988 253.625,214.875 C 253.21638,213.2405 251.95622,211.87912 251.0625,210.6875 C 249.95289,209.20802 249.15237,206.94934 248.8125,205.25 C 248.40698,203.22241 247.49241,201.32857 246.875,200.09375 C 245.8919,198.12754 244.95897,197.20896 243.34375,195.59375 C 242.1891,194.4391 241.79686,193.14581 240.75,191.75 C 239.66293,190.30057 238.30015,188.9564 237.21875,187.875 C 236.26546,186.92171 235.37282,184.5693 234.65625,183.375 C 233.88842,182.09528 232.63983,180.95684 230.8125,180.5 C 229.98805,180.29389 229.06902,180.20218 228.15625,180.1875 C 228.04534,180.24454 227.95098,180.29902 227.875,180.375 C 226.19056,182.05944 225.03175,184.5 221.6875,184.5 C 221.67981,184.5 221.66403,184.49998 221.65625,184.5 C 221.07322,185.39214 220.48897,185.81801 219.5625,186.28125 C 217.85846,187.13326 216.31499,187.80576 214.40625,188.1875 C 211.94637,188.67948 210.68953,190.01613 208.625,189.5 C 207.73538,189.27758 207.18935,186.0699 207,185.3125 C 206.55152,183.51859 207,181.04735 207,179.1875 C 207,177.58027 207,175.98223 207,174.375 C 207,172.5951 207.84079,171.47468 208.3125,170.53125 C 209.21276,168.73074 208.78601,167.32932 207.34375,166.96875 C 206.84852,166.84494 206.44582,166.78634 206.09375,166.78125 z M 87.28125,247.03125 C 86.918921,247.98357 86.44532,249.01561 86.15625,249.59375 C 85.550345,250.80556 85.5,252.68033 85.5,254.09375 C 85.5,255.67359 85.534739,257.48271 85.8125,258.59375 C 86.200922,260.14744 87.157677,261.31678 87.75,263.09375 C 88.184392,264.39691 88.845318,265.15084 89.59375,265.90625 C 89.621847,265.9316 89.659316,265.94357 89.6875,265.96875 C 90.150222,266.38208 90.610018,266.79336 91.09375,267.15625 C 91.123214,267.17835 91.157967,267.19685 91.1875,267.21875 C 92.043778,267.73732 93.04462,268.14731 93.875,268.5625 C 95.085892,269.16795 96.936693,268.875 98.375,268.875 C 100.7194,268.87501 100.63208,268.48585 101.5625,266.625 C 101.66373,266.42254 101.73082,266.25109 101.8125,266.0625 C 101.21986,265.66851 100.84971,265.19943 100.28125,264.0625 C 99.652395,262.80479 99.724612,260.89844 99.3125,259.25 C 98.912754,257.65102 98.145097,256.85269 97.40625,255.375 C 96.803675,254.16985 95.80593,252.83061 95.15625,251.53125 C 94.217393,249.65354 93.573733,250.16468 91.9375,248.9375 C 90.858685,248.12839 90.341673,247.03124 88.40625,247.03125 C 87.995115,247.03125 87.630261,247.01643 87.28125,247.03125 z "
       id="path2235"
       sodipodi:nodetypes="csssscsssscscssscssccssssscssssssssssssscssssscssssssssssssssccsssscsssssssscsssssssssssssssssssssssssssssssssssssscsssssssssssccssssssssssscssssssc"
       inkscape:export-filename="/home/cdodt/Desktop/dexter300x405.png"
       inkscape:export-xdpi="95.901169"
       inkscape:export-ydpi="95.901169" />
  </g>
  <g
     inkscape:groupmode="layer"
     id="layer9"
     inkscape:label="cyan"
     style="display:inline">
    <path
       style="fill:#34cbf2;display:inline"
       d="M 189.21875,131.375 C 187.63443,131.375 186.32423,131.41114 184.84375,131.78125 C 183.38707,132.14542 181.45465,133.04888 180.46875,134.28125 C 178.3024,136.98919 173.01424,141.71006 172.375,144.90625 C 171.88971,147.33272 172.52516,150.4619 171.9375,152.8125 C 171.01317,156.5098 169.87501,161.35077 169.875,165.09375 C 169.875,166.5569 169.49444,170.1448 168.1875,171.125 C 166.31631,172.5284 164.64998,171.26248 163,169.0625 C 161.38495,166.9091 158.48765,166.08757 156.125,164.90625 C 152.84629,163.2669 150.27506,160.9375 146.34375,160.9375 C 144.88658,160.9375 143.42592,160.9375 141.96875,160.9375 C 140.2588,160.9375 138.42806,160.74453 136.78125,161.15625 C 135.6039,161.45058 134.2121,162.51729 133.03125,162.8125 C 131.51166,163.1924 130.06299,164.20287 128.65625,164.90625 C 127.29,165.58938 126.09314,167.0003 124.90625,167.59375 C 123.13087,168.48144 122.79378,170.11246 121.15625,171.75 C 121.08686,171.81939 120.99638,171.89024 120.9375,171.96875 C 119.4907,173.89781 116.5625,176.28217 116.5625,179.0625 C 116.5625,180.40737 116.52568,181.72216 116.78125,183 C 117.361,185.89874 118.81177,189.54069 120.9375,192.375 C 125.27495,198.15826 130.09375,209.03765 130.09375,205.5 C 130.23253,205.84695 130.36414,206.19702 130.53125,206.53125 C 131.00912,207.48699 131.39686,207.37499 132.8125,207.375 C 133.86756,207.375 134.29238,207.82363 135.09375,208.625 C 136.31334,209.84459 136.69689,210.68751 138.4375,210.6875 C 139.87118,210.6875 140.7027,211.00987 141.5625,212.15625 C 143.67797,214.97687 144.6774,218.66361 146.96875,221.71875 C 147.82982,222.86685 148.45538,223.56551 149.25,224.625 C 150.08994,225.74492 150.61034,225.79335 151.96875,225.25 C 154.95902,224.05389 157.78918,222.64838 160.90625,221.3125 C 161.87769,220.89616 162.86719,220.53516 163.8125,220.0625 C 166.77432,218.58159 169.38908,216.44609 172.15625,215.0625 C 173.46417,214.40854 173.62617,213.37383 174.65625,212.34375 C 175.57603,211.42397 176.46987,210.53011 177.34375,209.65625 C 177.55191,209.44808 177.79212,209.26676 177.96875,209.03125 C 178.74691,207.99371 179.38531,206.85439 180.0625,205.5 C 180.68478,204.25544 181.09375,202.81518 181.09375,201.3125 C 181.09375,199.97374 181.3125,198.85045 181.3125,197.5625 C 181.3125,196.18144 181.68024,194.17299 181.09375,193 C 180.39765,191.6078 180.03828,189.93438 179.65625,188.40625 C 179.29378,186.95638 178.8372,186.02798 177.34375,185.28125 C 176.24312,184.73094 176.02746,183.97636 176.71875,182.59375 C 177.20048,181.6303 177.94298,180.3125 179.03125,180.3125 C 180.63592,180.3125 181.62839,180.35768 182.96875,179.6875 C 184.93193,178.70591 188.06219,178.12531 189.625,176.5625 C 190.46931,175.71819 191.56758,175.27871 192.75,174.6875 C 194.12828,173.99837 195.53362,172.24881 197.34375,171.34375 C 198.60291,170.71417 199.50623,170.19064 200.46875,169.46875 C 201.18454,168.93191 202.12903,168.0136 202.96875,167.59375 C 203.86213,167.14706 204.25502,166.78125 205.65625,166.78125 C 207.22499,166.78125 207.53125,166.85043 207.53125,168.4375 C 207.53125,169.89944 207.12499,170.71533 207.125,172.1875 C 207.125,173.36711 207.12499,174.53914 207.125,175.71875 C 207.125,176.89837 207.12499,178.07038 207.125,179.25 C 207.125,180.22799 207.09906,181.615 207.34375,182.59375 C 207.6124,183.66836 207.97849,185.11667 208.78125,185.71875 C 210.03881,186.66192 210.77189,187.59375 212.53125,187.59375 C 213.53146,187.59375 214.90905,187.83524 215.875,187.59375 C 217.34291,187.22677 218.8202,187.33605 220.03125,186.125 C 221.28472,184.87152 221.98999,182.20754 222.9375,180.3125 C 223.48789,179.21173 223.90397,177.96137 224.8125,176.75 C 225.62123,175.67168 226.70209,174.86109 227.3125,173.84375 C 228.21573,172.33835 228.96876,170.26192 228.96875,168.4375 C 228.96875,168.02117 228.96876,167.60383 228.96875,167.1875 C 228.96875,166.35919 229.40449,163.94497 228.96875,163.21875 C 227.45821,160.70119 225.01999,157.74347 222.53125,155.53125 C 219.96187,153.24736 218.37968,151.4156 216.6875,148.03125 C 215.9869,146.63005 214.88416,146.17646 213.15625,145.3125 C 211.04337,144.25606 208.7208,143.9597 206.71875,142.625 C 203.15611,140.2499 200.94727,135.69765 196.9375,134.09375 C 195.29291,133.43591 191.08904,131.37499 189.21875,131.375 z "
       id="path2233"
       inkscape:export-filename="/home/cdodt/Desktop/dexter300x405.png"
       inkscape:export-xdpi="95.901169"
       inkscape:export-ydpi="95.901169" />
  </g>
  <g
     inkscape:groupmode="layer"
     id="layer8"
     inkscape:label="lightgray"
     style="display:inline">
    <path
       style="fill:#9c9d9d;display:inline"
       d="M 169.59375 96.625 C 169.52567 96.62087 169.47319 96.639515 169.40625 96.65625 C 168.16535 96.96648 166.65775 96.924699 165.1875 97.21875 C 163.51713 97.55282 161.61276 97.896753 160.15625 98.625 C 158.995 99.20562 158.22212 99.592061 156.78125 100.3125 C 155.54558 100.93034 154.34348 101.90632 152.84375 102.28125 C 151.24548 102.68082 150.68164 103.19043 149.1875 103.9375 C 147.89004 104.58623 147.28073 105.469 145.84375 106.1875 C 143.53996 107.33939 140.6528 109.24305 138.25 109.84375 C 137.30143 110.08089 135.4448 111.56318 134.625 112.65625 C 133.53 114.11625 131.56696 115.7009 129.84375 116.5625 C 128.50187 117.23344 126.4929 117.92046 125.90625 119.09375 C 125.3228 120.26065 124.35438 121.80187 123.40625 122.75 C 122.30221 123.85404 120.43018 124.88232 119.1875 126.125 C 117.91136 127.40114 117.01692 128.26432 115.8125 129.46875 C 114.69016 130.59108 114.06027 131.78348 112.71875 133.125 C 111.98814 133.85561 110.6888 134.34245 109.65625 135.375 C 108.23558 136.79568 106.10213 138.08539 104.59375 139.59375 C 104.31323 139.87428 104.03052 140.12572 103.75 140.40625 C 102.66125 141.495 101.79574 142.47742 100.90625 143.59375 C 100.90625 144.86235 100.90625 147.47628 100.90625 149.125 C 100.90625 150.98367 99.7936 152.07504 98.21875 152.46875 C 96.682469 152.85282 95.58278 155.77194 95.21875 156.5 C 94.470966 157.99556 94.0193 159.86765 93.53125 160.84375 C 92.675953 162.55435 92.74099 163.45552 91.875 165.1875 C 91.069797 166.7979 91.03588 169.54398 90.53125 171.5625 C 90.128121 173.17501 88.84375 174.76468 88.84375 176.90625 C 88.84375 178.574 87.80766 180.3871 87.1875 181.9375 C 86.458432 183.76017 85.51731 184.59039 84.84375 185.9375 C 84.02338 187.57824 82.893718 188.49381 82.15625 189.96875 C 81.343782 191.59368 80.727796 191.89819 78.8125 192.28125 C 77.542208 192.53531 76.906336 189.81267 76.46875 188.9375 C 75.725845 187.45169 75.134438 185.66275 74.78125 184.25 C 74.327704 182.43582 73.898622 181.14099 73.125 179.59375 C 72.328583 178.00091 71.534357 176.41246 70.78125 174.90625 C 70.015397 173.37454 69.823599 172.4194 69.4375 170.875 C 68.881759 168.65203 67.68052 167.04854 66.75 165.1875 C 66.184281 164.05606 65.952196 163.27109 65.84375 162.15625 C 63.918899 163.01003 61.715534 163.75321 60.40625 165.0625 C 59.221966 166.24678 56.605633 168.00774 55.0625 168.625 C 53.648684 169.19053 52.051092 169.66766 50.90625 170.8125 C 49.967613 171.75114 49.700199 173.39355 48.71875 174.375 C 48.200605 174.89314 47.805868 176.06913 46.9375 176.9375 C 46.08058 177.79442 44.700117 179.7453 43.53125 181.8125 C 45.783864 182.89753 48.402325 186.45938 52.9375 193.3125 L 61.09375 205.625 L 50.96875 208.03125 L 40.875 210.40625 L 51.96875 212.34375 C 59.13301 213.59207 61.641409 215.17654 59.09375 216.8125 C 56.92603 218.20449 53.53927 222.45949 51.5625 226.28125 C 48.5442 232.11663 49.523151 231.78926 57.5625 224.25 L 67.125 215.28125 L 69.21875 218.34375 C 69.827228 217.53244 70.44967 216.84374 71.9375 216.84375 C 73.250757 216.84375 75.242869 216.68036 76.15625 217.59375 C 77.106769 218.54427 77.573619 219.51112 78.625 220.5625 C 80.099452 222.03695 81.046419 225.56067 81.59375 227.75 C 81.925952 229.0788 82.674907 231.45803 83.59375 232.46875 C 86.262595 235.40448 90.390412 242.51541 92 244.125 C 94.2514 246.3764 95.740857 249.40092 96.46875 252.3125 C 97.049473 254.63539 97.644255 257.81976 98.71875 259.96875 C 99.375878 261.28301 100.45766 262.95766 101.6875 264.1875 C 103.09589 265.59589 104.85484 266.50439 105.90625 267.90625 C 106.36568 268.51883 107.89806 269.74848 108.125 270.65625 C 108.46995 272.03607 109.17556 273.69488 109.875 275.09375 C 110.51908 276.38192 110.375 277.7454 110.375 279.3125 C 110.375 281.10183 109.625 282.96806 109.625 284.53125 C 109.625 285.98425 108.9857 287.0572 108.625 288.5 C 107.91326 291.34694 106.09796 293.67067 105.40625 296.4375 C 105.07298 297.77058 104.69423 299.33029 104.15625 300.40625 C 103.64209 301.43457 102.84088 302.67048 101.9375 303.875 C 100.43863 305.87349 98.252856 307.76704 96.71875 309.8125 C 95.677321 311.20107 93.160991 313.1028 93 313.28125 C 91.892611 313.94568 91.618736 314.04692 91.1875 313.6875 C 90.054642 316.05167 88.857777 318.51423 87.5625 321.125 C 79.13764 338.10625 73.540363 352.00001 75.125 352 C 76.70963 352 83.732227 348.79376 90.71875 344.875 L 103.4375 337.75 L 108.15625 344.875 C 115.29961 355.61342 122.9699 353.53886 137 337.125 C 149.21623 322.83323 150.50952 322.19118 171.28125 320.03125 C 183.15596 318.79644 193.88256 318.38426 195.09375 319.125 C 196.30494 319.86575 204.63392 334.08971 213.625 350.71875 L 229.96875 380.96875 L 237.75 373.65625 C 242.2969 369.38467 244.89155 364.07105 244.03125 360.78125 C 243.22413 357.69486 244.20472 355.10766 246.21875 355.0625 C 249.19132 354.99584 278.20345 311.43377 282.78125 300.15625 C 283.45604 298.4939 277.44255 300.80715 269.4375 305.28125 L 254.90625 313.40625 L 250.875 309.03125 C 250.16873 309.54171 249.35767 309.96179 248.53125 310.375 C 245.20429 312.03849 243.96622 307.97579 242.625 306.1875 C 241.20208 304.29027 240.90703 303.03203 239.28125 301.40625 C 236.6736 298.7986 236.4902 298.04734 234.21875 296.34375 C 232.62892 295.1514 231.56313 294.99043 230.28125 293.28125 C 229.45271 292.17652 228.80956 290.61911 228.3125 289.625 C 227.99405 288.9881 224.99584 287.5224 224.40625 287.375 C 222.58869 286.92061 222.15625 286.68366 222.15625 284.84375 C 222.15625 283.92708 224.24461 282.78664 224.6875 282.34375 C 225.44854 281.5827 225.97331 280.57585 226.9375 280.09375 C 228.51519 279.30489 228.58442 278.55154 230 277.84375 C 231.56404 277.06172 232.83625 274.5975 234.78125 273.625 C 235.86096 273.08513 236.62207 271.38086 237.03125 270.5625 C 237.90429 268.81642 238.56842 268.35136 239 266.625 C 239.31452 265.36694 240.7756 263.97441 241.5 263.25 C 242.60473 262.14526 243.61557 261.64798 244.3125 260.71875 C 245.09909 259.66996 246.22074 259.18351 246.84375 257.9375 C 247.43585 256.75331 248.1616 256.32238 248.53125 254.84375 C 248.83522 253.62789 249.75609 252.11282 250.21875 251.1875 C 250.72912 250.16675 251.5765 248.97199 252.15625 247.8125 C 252.75175 246.6215 253.06396 244.90334 253.5625 243.90625 C 254.11092 242.80941 255.14899 241.85826 255.8125 240.53125 C 256.37183 239.4126 256.375 238.16229 256.375 236.875 C 256.37501 235.28536 256.375 233.71465 256.375 232.125 C 256.37501 230.28694 256.20545 228.91555 255.8125 227.34375 C 255.34966 225.49239 254.37698 223.37896 253.5625 221.75 C 252.54697 219.71895 252.56746 218.00992 251.625 216.125 C 250.64074 214.1565 250.73729 211.77048 249.65625 209.96875 C 249.04998 208.95831 246.74272 206.86953 246 206.3125 C 245.24523 205.74643 244.69654 203.70559 244.3125 202.9375 C 243.4763 201.26511 243.0686 199.96191 242.625 198.1875 C 242.15152 196.29357 240.56567 194.18132 239.5625 192.84375 C 238.59621 191.55535 236.86353 190.74512 235.90625 189.46875 C 234.81964 188.01994 234.45968 187.4506 233.65625 185.84375 C 232.94453 184.42028 232.04024 182.7547 231.6875 181.34375 C 231.35294 180.00548 230.65507 178.90153 230.28125 177.40625 C 229.94039 176.04283 230.35799 175.60661 231.09375 175.46875 C 231.0113 175.20713 230.93243 174.94338 230.875 174.65625 C 230.35872 172.07489 229.55802 169.38834 228.90625 166.78125 C 228.60367 165.57094 228.34302 164.34061 228.0625 163.125 C 227.8822 162.3437 227.62014 161.41638 227.3125 160.46875 C 227.27725 161.35056 227.17622 162.20138 226.96875 163.03125 C 226.52057 164.824 226.46875 166.6947 226.46875 168.65625 C 226.46875 171.08309 225.43962 172.21029 224.875 174.46875 C 224.6536 175.3544 224.07798 176.40684 223.8125 177.46875 C 223.5992 178.32196 223.29611 179.38472 222.9375 180.28125 C 222.35815 181.72961 220.41391 183.49234 219.40625 184.5 C 218.37417 185.53209 217.69009 185.73308 216.59375 186.28125 C 214.87836 187.13894 213.89614 188.75 211.84375 188.75 C 210.64631 188.75 209.3574 188.90625 208.125 188.90625 C 206.6299 188.90625 206.64958 188.83709 205.84375 188.03125 C 205.32143 187.50893 205.16987 186.89826 204.96875 186.09375 C 204.77257 185.30905 204.96875 184.06983 204.96875 183.28125 C 205.34139 182.92822 205.3125 180.85174 205.3125 179.40625 C 205.31249 176.85544 206.55991 174.23685 206.90625 171.8125 C 207.12873 170.25514 208.57573 167.66737 206.90625 167.25 C 205.92684 167.00514 205.19453 167.55899 204.4375 167.9375 C 203.65323 168.32964 202.76856 168.69067 202.15625 168.84375 C 201.2948 169.05911 200.80738 169.48694 200.03125 169.875 C 199.43711 170.17206 198.39617 170.94506 197.90625 171.3125 C 196.72004 172.20216 195.39853 172.72068 194.03125 173.0625 C 191.59413 173.67177 189.54643 174.13897 187 175.1875 C 185.59819 175.76472 184.97994 176.11217 183.28125 175.6875 C 181.60689 175.26891 176.05861 162.60104 175.875 162.3125 C 174.7319 160.5162 174.05514 158.87678 173.59375 157.03125 C 173.00511 154.67668 173.5189 152.07564 172.90625 149.625 C 172.5757 148.30284 172.90625 146.40768 172.90625 145.0625 C 172.90624 142.77677 173.16159 142.05182 174.3125 139.75 C 174.90734 138.56031 177.23978 136.72385 178.1875 136.25 C 179.05557 135.81596 181.10709 135.875 182.0625 135.875 C 183.50358 135.875 185.00059 135.71875 186.46875 135.71875 C 187.67202 135.71875 189.29782 136.0625 190.6875 136.0625 C 196.72201 136.0625 202.46095 140.28712 207.59375 143.28125 C 212.18363 145.95868 217.65006 147.95622 222.71875 149.90625 C 222.30943 149.30716 221.86883 148.7001 221.34375 148 C 220.31835 146.6328 218.51503 146.73032 216.84375 146.3125 C 209.80646 144.55316 211.54856 146.04856 206.46875 140.96875 C 204.87387 139.37388 202.16164 138.28233 200.28125 137.90625 C 198.70159 137.59032 197.46915 136.7504 196.65625 135.9375 C 195.79754 135.07879 194.09086 134.51418 193 133.96875 C 190.46669 132.70209 188.05387 132.48405 185.4375 131.4375 C 182.81921 130.39019 181.21875 128.79129 181.21875 126.65625 C 181.21875 125.6761 181.80533 124.84012 182.78125 124.0625 C 182.77991 124.05323 182.78255 124.04058 182.78125 124.03125 C 182.68009 123.30473 182.71959 122.3537 182.8125 121.25 C 181.20817 120.00875 180.6391 116.97733 181.46875 116.5625 C 182.9402 117.15108 183.15625 117.607 183.15625 116.28125 C 183.15625 114.93373 183.48015 113.10811 183.15625 111.8125 C 182.77328 110.28062 182.37697 108.84769 181.75 107.59375 C 181.34952 106.79279 180.7626 103.7219 179.5 103.40625 C 178.24964 103.09366 176.71527 102.71701 175.28125 102 C 174.51963 101.61919 172.12662 100.50644 171.9375 99.75 C 171.74609 98.984372 170.61497 96.686953 169.59375 96.625 z M 160.09375 146.875 C 160.90827 146.87068 161.54517 147.01392 161.9375 147.40625 C 162.71301 148.18176 162.87063 150.76189 162.28125 153.125 C 161.16289 157.60911 150.125 157.12639 150.125 152.59375 C 150.125 150.14852 156.56414 146.8937 160.09375 146.875 z M 131.59375 162.5625 C 135.09406 162.5625 138.45726 163.28125 142 163.28125 C 143.87095 163.28125 146.6366 162.75465 148.34375 163.4375 C 149.7258 163.99032 151.05621 164.30148 152.5625 164.5 C 153.39813 165.19637 154.85399 166.36449 155.75 166.8125 C 156.75398 167.31449 157.55947 168.03832 158.90625 168.375 C 161.1337 168.93187 162.75539 169.37716 165.09375 170.3125 C 168.89961 171.83485 169.07857 172.89106 172.84375 176.65625 C 177.78452 181.59703 175.06385 179.06451 177.9375 183.375 C 180.23349 186.81898 182.1875 190.23974 182.1875 194.46875 C 182.1875 195.56146 182.44887 197.11079 182.1875 198.15625 C 181.87721 199.39742 181.91308 200.74705 181.65625 202.03125 C 181.30217 203.80162 181.48463 205.70185 181.125 207.5 C 180.81031 209.07347 180.22588 210.68036 179 211.90625 C 177.63436 213.27189 176.21925 215.03075 174.9375 216.3125 C 173.92567 217.32433 172.95346 217.95278 171.96875 218.9375 C 171.16724 219.739 170.45037 220.14853 169.5 220.71875 C 167.30862 222.03358 164.0542 224.21417 161.375 224.75 C 160.26234 224.97253 158.52748 225.21024 157.5 224.59375 C 157.20636 224.41757 156.91719 224.24106 156.625 224.0625 C 153.45373 222.1245 150.44919 219.91209 147.125 218.25 C 141.97342 215.67421 138.90677 209.82542 134.4375 206.25 C 133.2636 205.31087 133.00749 204.16373 132.125 203.28125 C 129.09601 200.25226 129.49348 195.56422 127.21875 192.53125 C 125.74767 190.56981 122.625 185.05259 122.625 182.84375 C 122.625 182.7263 122.67752 182.5738 122.625 182.46875 C 122.08232 181.38339 119.8125 179.46655 119.8125 178.25 C 119.8125 176.52795 120.08858 175.30197 120.5 173.65625 C 121.34987 170.25679 123.50218 167.68532 125.96875 165.21875 C 126.7361 164.4514 127.67941 163.72199 128.78125 163.28125 C 129.88591 162.83939 130.41168 162.5625 131.59375 162.5625 z M 57.96875 168.3125 C 59.32862 168.3125 74.359707 191.70126 91.34375 220.28125 C 108.3278 248.86122 125.06566 275.30908 128.5625 279.0625 C 133.62362 284.49498 134.48595 288.27247 132.75 297.5625 C 131.5506 303.98119 129.08031 311.01042 127.28125 313.1875 C 123.59676 317.64616 102.625 318.68714 102.625 314.40625 C 102.625 312.88355 104.7625 305.56086 107.375 298.15625 C 109.9875 290.75164 112.125 281.97635 112.125 278.65625 C 112.125 275.33615 98.534429 250.56692 81.90625 223.59375 C 54.82065 179.65725 49.90383 168.3125 57.96875 168.3125 z M 202.84375 172.40625 C 204.25038 172.43001 203.91919 174.46808 202.65625 179.5 C 200.91884 186.42242 202.21675 190.0706 209.125 197.28125 C 213.89895 202.26418 217.19877 206.07403 216.4375 205.78125 C 215.67624 205.48847 209.86344 204.70257 203.53125 204.03125 C 193.61308 202.97975 191.75737 201.4743 190.09375 193.15625 C 187.87467 182.0608 189.11597 179.23214 198.25 174.34375 C 200.53607 173.12028 201.99977 172.39199 202.84375 172.40625 z M 231.0625 187.3125 C 231.87302 187.3125 237.66444 195.34988 243.9375 205.15625 C 253.5933 220.25069 255.09013 224.93476 253.65625 235.625 C 251.58751 251.04865 238.81077 267.7109 218.4375 281.53125 C 200.3249 293.81806 191.46112 294.21568 161.21875 284.15625 C 128.47701 273.26547 129.04481 273.66572 118.28125 254.59375 L 108.3125 236.9375 L 120.53125 226.5 C 138.26282 211.31876 146.60269 212.00058 134.3125 227.625 C 119.87193 245.98322 130.78978 270.60024 155.875 276.21875 C 172.23148 279.88222 189.34433 273.58797 208.34375 256.90625 L 220.28125 246.40625 L 218.4375 258.8125 L 216.59375 271.25 L 221.125 260.15625 C 230.05864 238.26666 227.60714 236.91886 206.78125 252.25 C 196.13965 260.0839 186.10812 266.50001 184.5 266.5 C 182.89188 266.5 176.51284 261.41911 170.3125 255.21875 C 156.94661 241.85286 157.43853 230.30563 171.59375 225.125 C 176.33469 223.38987 183.28331 218.23638 187.03125 213.6875 C 193.58536 205.73271 194.40635 205.56786 208.78125 209.1875 C 226.69811 213.69902 229.53528 211.9442 220.28125 202.09375 L 213.375 194.71875 L 221.46875 191.03125 C 225.93355 188.99695 230.25197 187.3125 231.0625 187.3125 z M 114.6875 190.6875 L 119.84375 198.53125 C 124.77243 206.05337 124.60918 206.88271 116.1875 217.4375 C 111.34239 223.50982 106.57929 228.49995 105.59375 228.5 C 104.60821 228.50005 100.62519 222.86373 96.75 215.96875 L 89.71875 203.40625 L 102.1875 197.0625 L 114.6875 190.6875 z M 148 250.65625 C 158.22397 250.65625 163.45467 252.52968 168.59375 258 C 172.38068 262.03101 175.46876 266.99768 175.46875 269.0625 C 175.46875 276.01865 149.33085 272.92372 141.4375 265.03125 C 130.7929 254.38781 132.48844 250.65625 148 250.65625 z M 142.34375 282.96875 L 165.65625 290.5625 C 193.01854 299.48281 203.08881 300.00457 213 293.0625 C 219.825 288.28209 220.72543 288.41212 227.9375 295.1875 C 232.15989 299.15423 235.01857 303.01269 234.28125 303.75 C 233.54393 304.48732 217.50582 307.76628 198.65625 311.03125 C 179.80669 314.29621 157.61668 317.00775 149.34375 317.0625 C 135.57567 317.1536 134.31251 316.50733 134.3125 309.59375 C 134.3125 305.43954 136.1044 297.75154 138.3125 292.5 L 142.34375 282.96875 z M 142.5625 295 C 141.878 295 140.50251 297.13751 139.5 299.75 C 138.49748 302.3625 139.03175 304.50001 140.71875 304.5 C 142.40576 304.5 143.81251 302.36251 143.8125 299.75 C 143.8125 297.1375 143.24699 295.00001 142.5625 295 z "
       id="path2231" />
  </g>
  <g
     inkscape:groupmode="layer"
     id="layer6"
     inkscape:label="orange"
     style="display:inline">
    <path
       style="fill:#f09d0c;display:inline"
       d="M 168.28125,96.53125 C 166.41737,96.53125 165.05856,96.790047 163.59375,97.15625 C 161.81325,97.601375 160.76414,98.718751 158.5625,98.71875 C 156.40249,98.71875 156.46786,99.789288 154.5,100.28125 C 153.23058,100.59861 151.59385,101.15623 150.09375,101.53125 C 148.78327,101.85888 147.75603,103.39693 146.34375,103.75 C 144.78979,104.13849 144.42263,105.0346 143.21875,105.9375 C 142.04723,106.81614 140.54877,107.92531 138.5,108.4375 C 136.69996,108.88751 135.27482,109.78769 134.125,110.9375 C 133.30284,111.75965 131.78569,112.52237 131.3125,113.46875 C 130.49317,115.10741 127.00848,119.06819 124.40625,119.71875 C 122.59404,120.1718 120.1377,121.79979 118.78125,123.15625 C 117.51776,124.41973 117.15686,125.40564 115.9375,126.625 C 114.17191,128.39059 112.51827,131.60671 110.625,133.5 C 109.98414,134.14085 108.15731,135.58952 107.8125,136.96875 C 107.45197,138.41085 107.02516,139.73095 106.21875,141.34375 C 105.71891,142.34343 104.32575,142.94224 103.71875,144.15625 C 102.89718,145.79938 101.87532,147.59344 100.59375,148.875 C 99.850819,149.61794 98.51856,151.15038 97.78125,152.625 C 96.956329,154.27485 96.777406,155.25769 95.90625,157 C 95.164636,158.48323 95.04393,160.25588 94.3125,161.71875 C 93.737758,162.86824 93.019585,164.88666 92.125,165.78125 C 90.871557,167.03469 89.093844,168.74981 88.0625,170.8125 C 87.259789,172.41792 85.878223,173.92141 85.5625,175.5 C 85.218619,177.21941 84.058158,179.45921 83.65625,181.46875 C 83.290498,183.29751 83.509492,185.49327 83.03125,187.40625 C 82.646213,188.9464 82.453236,190.46852 81.78125,191.8125 C 81.142674,193.08965 80.495924,194.2292 79.5,194.9375 C 79.764352,195.692 80.079509,196.36076 80.53125,196.8125 C 81.323992,197.60525 82.092927,200.01459 83.03125,201.1875 C 83.262365,201.47639 83.566037,201.73419 83.875,201.96875 C 84.454158,201.61416 85.019409,201.32327 85.5625,201.1875 C 87.133512,200.79474 89.474005,200.95049 90.875,200.25 C 92.545052,199.41497 93.428257,198.81712 94.9375,198.0625 C 96.122249,197.47013 97.390673,196.59765 99.03125,196.1875 C 100.57522,195.80151 101.38273,195.36139 102.78125,194.3125 C 103.92923,193.45151 105.0959,192.88228 106.875,192.4375 C 108.60641,192.00465 109.38633,191.76993 110.625,190.53125 C 111.65986,189.49639 112.76081,188.13463 113.4375,186.78125 C 114.15055,185.35515 114.63795,184.77477 116.25,183.96875 C 117.25081,183.46835 119.40625,181.82719 119.40625,180.53125 C 119.40625,178.75862 119.28569,176.60726 119.71875,174.875 C 120.22171,172.86315 119.67224,169.92126 120.65625,168.28125 C 121.84354,166.30243 122.5677,166.07553 125.03125,164.84375 C 126.89785,163.91045 128.66001,163.16313 130.6875,162.65625 C 132.14352,162.29225 133.56824,161.46732 135.0625,161.09375 C 137.25603,160.54537 139.52061,160.37766 141.65625,159.84375 C 143.83357,159.29942 143.63957,158.75422 144.15625,156.6875 C 144.41736,155.64306 145.09375,153.65641 145.09375,152.3125 C 145.09375,150.32129 146.03866,150.11017 146.65625,148.875 C 147.35115,147.48519 148.14093,147.67157 149.46875,146.34375 C 150.08007,145.73242 151.37084,144.4698 152.625,144.15625 C 154.10406,143.78649 155.52566,143.27483 157,142.90625 C 158.70055,142.48111 159.59628,141.60811 160.75,141.03125 C 161.87539,140.46855 163.9714,139.78126 165.46875,139.78125 C 167.06193,139.78125 168.36897,139.71546 169.53125,138.84375 C 170.33945,138.23759 171.76233,137.55016 172.65625,136.65625 C 173.31624,135.99626 174.66394,135.17215 175.1875,134.125 C 175.93104,132.63793 176.57409,131.35183 177.375,129.75 C 178.19532,128.10935 179.18089,126.65807 179.5625,124.75 C 179.91684,122.97832 180.38772,121.41785 180.8125,119.71875 C 181.16845,118.29497 181.55771,117.29083 182.375,115.65625 C 183.05027,114.3057 182.99999,112.86138 183,110.9375 C 183,109.16414 182.15675,108.81448 181.75,107.1875 C 181.66234,106.83683 181.02216,103.22983 180.8125,103.125 C 179.24746,102.34248 177.45643,100.94696 175.5,99.96875 C 174.17043,99.303966 173.4402,98.329473 172.34375,97.78125 C 170.94517,97.081956 170.44602,96.531249 168.28125,96.53125 z M 62.8125,202 C 61.847189,202.36337 60.915001,202.83719 60.15625,203.40625 C 59.790902,203.68026 59.394087,203.85179 58.96875,204 C 59.007155,205.30821 58.488637,206.23853 57.4375,206.90625 C 54.77795,208.59568 55.475739,209.4044 59.59375,209.4375 C 65.42555,209.48438 65.41594,209.68983 59.875,215.8125 C 54.0107,222.29247 57.413399,224.93035 63.625,218.71875 C 64.29755,218.0462 65.159675,217.84546 66.125,218 C 66.125,217.07434 66.125,216.40561 66.125,215.625 C 66.125001,213.98703 66.4375,212.03804 66.4375,210.28125 C 66.437496,208.00771 65.607909,207.05957 64.875,205.59375 C 64.09437,204.03248 63.153917,203.61273 62.8125,202 z "
       id="path2229"
       inkscape:export-filename="/home/cdodt/Desktop/dexter300x405.png"
       inkscape:export-xdpi="95.901169"
       inkscape:export-ydpi="95.901169" />
  </g>
  <g
     inkscape:groupmode="layer"
     id="layer3"
     inkscape:label="tongue"
     style="display:inline">
    <path
       style="fill:#ff9999;fill-opacity:1;fill-rule:evenodd;stroke:#000000;stroke-width:1px;stroke-linecap:butt;stroke-linejoin:miter;stroke-opacity:0.10695184"
       d="M 167.56178,274.18161 C 167.88173,273.75502 166.53223,274.46727 166.00625,274.55493 C 164.35814,274.82962 162.5753,275.36381 160.90411,275.36381 C 159.37125,275.36381 157.92195,275.41448 156.42418,275.11493 C 155.48367,274.92682 154.4818,274.61964 153.62423,274.11939 C 153.11596,273.82289 152.64117,273.81764 152.13092,273.43495 C 151.8318,273.21061 151.50871,273.02014 151.1976,272.81274 C 150.46361,272.32342 149.44151,271.8642 148.58431,271.69276 C 148.09793,271.59548 147.75558,271.6312 147.33988,271.31943 C 146.67871,270.82355 145.88587,270.50892 145.22436,270.01278 C 144.85426,269.73521 144.55935,269.57625 144.22882,269.32835 C 143.45191,268.74567 142.69007,268.37686 141.80219,268.0217 C 141.16622,267.76732 140.50225,267.03287 140.06,266.59062 C 139.72866,266.25927 138.87401,265.97883 138.50447,265.78174 C 138.19377,265.61603 137.91588,265.49753 137.57115,265.22175 C 137.22833,264.94749 136.86342,263.94637 136.76227,263.54178 C 136.5945,262.87069 135.58589,262.05428 135.14452,261.61292 C 134.65899,261.12738 134.11397,260.85064 133.96232,260.24405 C 133.79279,259.56594 133.60603,258.7226 133.27788,258.06631 C 133.07532,257.66118 132.67349,256.4754 132.59345,256.07523 C 132.47066,255.46125 132.30429,254.79413 132.1579,254.20859 C 132.07759,253.88734 132.41663,253.28828 132.46901,253.02639 C 132.57339,252.50446 133.04262,251.87062 133.46455,251.53308 C 133.93802,251.1543 134.29946,250.70468 134.77119,250.35087 C 134.98571,250.18999 135.29294,250.00049 135.64229,249.79088 C 136.72587,249.14074 138.11537,248.54646 139.37557,248.54646 C 140.12222,248.54646 140.86888,248.54646 141.61553,248.54646 C 142.26756,248.54646 142.71745,248.66056 143.35772,248.85756 C 144.69622,249.26941 145.59315,248.91979 146.90433,248.91979 C 147.86131,248.91979 148.7898,249.04423 149.70429,249.04423 C 150.21474,249.04423 150.64607,249.23089 151.1976,249.23089 C 151.90983,249.23089 152.62088,249.29311 153.31312,249.29311 C 154.60704,249.29311 155.78775,249.8627 156.98417,250.10199 C 157.69646,250.24445 158.30318,250.22952 159.03748,250.4131 C 159.42982,250.51118 159.79023,250.87719 160.15746,251.09753 C 160.49369,251.29927 161.07158,251.28035 161.40188,251.34641 C 162.02905,251.47185 162.362,251.9265 162.83297,252.27973 C 163.24334,252.58751 163.60396,252.78359 164.0774,252.90194 C 164.68359,253.05349 165.52391,253.78846 165.94403,254.20859 C 166.42199,254.68654 167.2341,255.29332 167.87289,255.45302 C 168.48882,255.607 169.17071,256.13083 169.67731,256.51078 C 169.71441,256.5386 169.76027,256.55226 169.80175,256.573 C 170.26426,256.80425 170.64818,257.33226 171.04617,257.63076 C 171.53395,257.99659 172.81305,258.78723 172.97503,259.43517 C 173.2217,260.42186 174.25962,261.89461 174.84167,262.67068 C 175.12798,263.05243 175.4046,263.4825 175.77499,263.85288 C 176.1557,264.2336 176.57386,264.52731 176.89497,264.84842 C 177.8833,265.83675 178.73102,267.60303 179.19716,268.76836 C 179.34961,269.1495 179.6327,269.39595 179.6327,269.82612 C 179.6327,270.35187 179.42248,270.55933 179.07271,270.82166 C 178.61512,271.16486 178.65421,271.65313 178.07717,271.94164 C 177.67354,272.14346 177.07756,272.10423 176.64608,272.19053 C 176.14326,272.29109 175.70527,272.52802 175.215,272.62608 C 174.57737,272.7536 174.03269,273.34165 173.41058,273.49717 C 173.00617,273.59828 172.75834,273.74606 172.2906,273.74606 C 171.82806,273.74606 171.52835,273.52438 171.17062,273.43495 C 170.83957,273.35219 170.42986,273.37126 170.17508,273.43495 C 169.74114,273.54344 169.59918,273.68384 169.05509,273.68384 C 168.72507,273.68384 168.41291,273.88049 168.184,273.99494 C 168.03651,274.06869 167.78899,274.13617 167.56178,274.18161 z "
       id="path4128"
       inkscape:export-filename="/home/cdodt/Desktop/dexter300x405.png"
       inkscape:export-xdpi="95.901169"
       inkscape:export-ydpi="95.901169" />
  </g>
  <g
     inkscape:groupmode="layer"
     id="layer5"
     inkscape:label="darkgray"
     style="display:inline">
    <path
       style="fill:#5c5d5f;display:inline"
       d="M 169.625 96.34375 C 169.55697 96.339678 169.50444 96.358266 169.4375 96.375 C 168.1966 96.685224 166.68898 96.643452 165.21875 96.9375 C 164.84649 97.011952 164.45187 97.108204 164.0625 97.1875 C 162.73418 98.146235 161.44402 99.149732 160.34375 100.25 C 159.4475 101.14625 158.66694 101.53125 157 101.53125 C 156.06445 101.53125 155.21877 101.51777 154.40625 101.375 C 153.92714 101.62204 153.41814 101.86422 152.875 102 C 151.27673 102.39957 150.74414 102.90918 149.25 103.65625 C 147.95254 104.30498 147.31199 105.18775 145.875 105.90625 C 143.57121 107.05814 140.7153 108.9618 138.3125 109.5625 C 137.36393 109.79964 135.47606 111.28193 134.65625 112.375 C 133.56125 113.835 131.59821 115.41965 129.875 116.28125 C 128.53312 116.95219 126.5554 117.63921 125.96875 118.8125 C 125.3853 119.9794 124.38563 121.52062 123.4375 122.46875 C 122.33346 123.57279 120.46143 124.60107 119.21875 125.84375 C 117.94261 127.11989 117.04817 127.98309 115.84375 129.1875 C 114.72141 130.30984 114.12277 131.50222 112.78125 132.84375 C 112.05064 133.57436 110.72005 134.06119 109.6875 135.09375 C 108.26683 136.51443 106.13338 137.77288 104.625 139.28125 C 104.34448 139.56178 104.06177 139.84446 103.78125 140.125 C 102.36676 141.53949 101.35768 142.74184 100.15625 144.34375 C 99.939715 144.63246 99.74917 144.94561 99.5625 145.25 C 99.5625 146.40033 99.5625 147.27224 99.5625 148.125 C 99.562501 149.98367 98.449847 151.07504 96.875 151.46875 C 95.338721 151.85283 94.239032 154.74069 93.875 155.46875 C 93.127221 156.96431 92.67555 158.86765 92.1875 159.84375 C 91.332201 161.55434 91.39724 162.45552 90.53125 164.1875 C 89.726053 165.79789 89.692132 168.51273 89.1875 170.53125 C 88.784374 172.14377 87.5 173.76468 87.5 175.90625 C 87.499997 177.57399 86.46391 179.35585 85.84375 180.90625 C 85.114679 182.72893 84.173558 183.59039 83.5 184.9375 C 82.679635 186.57823 81.549968 187.46256 80.8125 188.9375 C 80.000032 190.56242 79.384046 190.89819 77.46875 191.28125 C 76.198458 191.53531 75.562586 188.81267 75.125 187.9375 C 74.382095 186.45169 73.821938 184.66275 73.46875 183.25 C 73.015204 181.43581 72.554872 180.10974 71.78125 178.5625 C 70.984833 176.96967 70.190607 175.38121 69.4375 173.875 C 68.671647 172.34329 68.479849 171.4194 68.09375 169.875 C 67.538009 167.65202 66.36802 166.04854 65.4375 164.1875 C 65.204475 163.72144 65.016262 163.33212 64.875 162.9375 C 63.767406 163.21132 62.712245 163.569 62 164.28125 C 60.584211 165.69704 57.774053 167.28484 55.46875 168.4375 C 54.180247 169.08175 53.510491 169.98951 52.5 171 C 51.880531 171.61947 50.964629 172.12913 50.125 172.96875 C 49.145854 173.94789 47.519655 174.81623 46.5625 176.15625 C 45.902153 177.08074 45.147021 177.9633 44.5625 178.9375 C 44.044054 179.80158 43.692174 180.70188 43.40625 181.59375 C 45.902171 182.37365 48.677995 185.80648 53.375 192.71875 C 59.29969 201.43771 60.334219 205.06614 57.4375 206.90625 C 54.77795 208.59568 55.475739 209.4044 59.59375 209.4375 C 65.42555 209.48438 65.41594 209.68983 59.875 215.8125 C 54.0107 222.29247 57.413399 224.93035 63.625 218.71875 C 64.107397 218.23635 64.672568 217.98478 65.3125 217.9375 C 65.439598 217.79924 65.547318 217.67143 65.6875 217.53125 C 66.397208 216.82154 66.860079 216.38449 67.6875 215.28125 C 68.295978 214.46994 68.918419 213.8125 70.40625 213.8125 C 71.719507 213.8125 73.711618 213.61788 74.625 214.53125 C 75.575519 215.48177 76.042375 216.47987 77.09375 217.53125 C 78.568202 219.0057 79.515167 222.52941 80.0625 224.71875 C 80.394702 226.04755 81.143663 228.39552 82.0625 229.40625 C 84.731345 232.34198 88.890411 239.45291 90.5 241.0625 C 92.7514 243.3139 94.209605 246.33842 94.9375 249.25 C 95.518223 251.57289 96.113004 254.78852 97.1875 256.9375 C 97.844628 258.25176 98.926419 259.92642 100.15625 261.15625 C 101.56464 262.56464 103.32359 263.47312 104.375 264.875 C 104.83443 265.48758 106.36681 266.68597 106.59375 267.59375 C 106.9387 268.97357 107.64431 270.66361 108.34375 272.0625 C 108.98783 273.35067 108.84375 274.71413 108.84375 276.28125 C 108.84375 278.07058 108.09375 279.90557 108.09375 281.46875 C 108.09375 282.92175 107.45445 283.99471 107.09375 285.4375 C 106.38201 288.28444 104.56671 290.60815 103.875 293.375 C 103.54173 294.70808 103.16298 296.2678 102.625 297.34375 C 102.11084 298.37207 101.30963 299.608 100.40625 300.8125 C 98.974909 302.72096 96.923681 304.55823 95.40625 306.5 C 93.49283 310.81214 91.301958 315.48847 88.71875 320.65625 C 80.6916 336.71483 74.124996 350.27837 74.125 350.8125 C 74.125 352.76817 85.431972 347.63102 93.65625 341.9375 C 102.03685 336.13578 102.17459 336.14868 108.375 344.03125 C 111.8144 348.40375 116.46213 352.00001 118.71875 352 C 120.97537 352 129.33855 345.04796 137.28125 336.5625 C 151.2993 321.58654 152.35675 321.09038 173.28125 319.5 L 194.84375 317.875 L 202.1875 329.5 C 206.22961 335.90313 214.10071 350.21389 219.6875 361.28125 L 229.84375 381.375 L 237.8125 373.40625 C 244.38355 366.83519 245.17654 364.32436 242.34375 359.03125 C 239.45385 353.63142 239.79048 352.83402 244.40625 353.9375 C 248.46212 354.90713 254.01455 348.46101 265.71875 329.21875 C 286.38647 295.24006 286.27329 295.86513 269.59375 305.1875 L 255.1875 313.21875 L 248.3125 306.21875 C 248.2912 306.21897 248.27155 306.21875 248.25 306.21875 C 246.23024 306.21876 245.46123 305.92998 244.34375 304.8125 C 243.16719 303.63593 242.9902 302.6152 241.8125 301.4375 C 240.7036 300.3286 239.28608 300.03608 238.15625 298.90625 C 236.9744 297.7244 235.42286 296.96143 234.25 296.375 C 232.51824 295.50911 231.60403 293.3643 230.875 291.90625 C 230.499 291.15427 228.67822 290.27198 228.0625 289.65625 C 226.79559 288.38935 225.49118 287.36618 224.6875 286.5625 C 224.1118 285.98681 224.40625 283.73113 224.40625 282.65625 C 224.40625 280.67746 225.02496 280.51878 226.375 279.84375 C 227.60315 279.22968 228.97287 278.49116 230.3125 278.15625 C 230.91635 278.00529 232.1178 276.35095 232.84375 275.625 C 234.076 274.39275 235.38843 273.33032 236.1875 272.53125 C 238.15929 270.55946 239.73536 267.60839 241.25 266.09375 C 242.22038 265.12337 242.62583 264.18583 243.21875 263 C 243.86622 261.70505 244.18617 260.62633 244.90625 259.90625 C 245.84142 258.97108 246.11071 258.17054 246.875 257.40625 C 247.94318 256.33807 248.11331 255.85545 249.375 254.59375 C 250.45931 253.50944 251.04997 252.35628 251.90625 251.5 C 252.44605 250.96019 253.08939 248.73618 253.3125 247.84375 C 253.68438 246.3562 254.4375 245.78777 254.4375 243.9375 C 254.4375 242.05863 254.96155 241.56003 255.28125 240.28125 C 255.67757 238.69596 256.40625 237.74172 256.40625 235.78125 C 256.40625 234.09809 256.40625 232.43316 256.40625 230.75 C 256.40625 229.25386 256.40625 227.74613 256.40625 226.25 C 256.40625 224.3507 256.07679 223.09108 255.28125 221.5 C 254.57872 220.09495 253.875 218.5396 253.875 217 C 253.875 215.53712 252.89832 214.01026 252.1875 213.0625 C 251.47012 212.10599 250.62198 210.35015 249.9375 209.4375 C 248.99672 208.18314 248.46186 205.86122 247.71875 204.375 C 247.02863 202.99476 245.89088 202.26587 244.90625 201.28125 C 243.90738 200.28236 243.05222 198.89596 242.09375 197.9375 C 240.9077 196.75144 240.38616 195.08481 239.84375 194 C 238.71703 191.74655 238.03224 189.90724 235.9375 187.8125 C 235.09398 186.96899 234.25504 184.77014 233.96875 183.625 C 233.63625 182.29498 231.34872 180.44247 230.3125 179.40625 C 229.25412 178.34788 230.38251 177.50795 231.59375 177.03125 C 231.53886 176.89487 231.49166 176.70207 231.4375 176.59375 C 229.84936 173.41746 228.90625 169.27367 228.90625 165.65625 C 228.90625 165.01418 228.77384 164.37369 228.59375 163.75 C 228.38207 165.128 228.34375 166.56009 228.34375 168.03125 C 228.34376 170.45809 227.31462 171.58529 226.75 173.84375 C 226.52859 174.72941 225.95298 175.78184 225.6875 176.84375 C 225.47421 177.69694 225.17111 178.75972 224.8125 179.65625 C 224.23316 181.10462 222.28891 182.86734 221.28125 183.875 C 220.24918 184.90707 219.56509 185.10808 218.46875 185.65625 C 216.75337 186.51394 215.77114 188.125 213.71875 188.125 C 212.5213 188.125 211.2324 188.28125 210 188.28125 C 208.50491 188.28125 208.52458 188.21209 207.71875 187.40625 C 207.19644 186.88394 207.04487 186.27326 206.84375 185.46875 C 206.64757 184.68405 206.84375 183.44483 206.84375 182.65625 C 207.21639 182.30322 207.1875 180.22674 207.1875 178.78125 C 207.1875 176.23045 208.43491 173.6431 208.78125 171.21875 C 209.00372 169.6614 210.45073 167.04237 208.78125 166.625 C 207.80183 166.38015 207.06953 166.93399 206.3125 167.3125 C 205.52823 167.70464 204.64356 168.06567 204.03125 168.21875 C 203.1698 168.43411 202.68238 168.89319 201.90625 169.28125 C 201.31211 169.57832 200.27117 170.32006 199.78125 170.6875 C 198.59504 171.57716 197.27353 172.09568 195.90625 172.4375 C 193.46913 173.04678 191.42143 173.51397 188.875 174.5625 C 187.47319 175.1397 186.85494 175.51842 185.15625 175.09375 C 183.4819 174.67516 177.96486 161.97604 177.78125 161.6875 C 176.63815 159.89121 175.93014 158.25178 175.46875 156.40625 C 174.8801 154.05166 175.3939 151.45064 174.78125 149 C 174.45071 147.67785 174.78125 145.78268 174.78125 144.4375 C 174.78125 142.15175 175.03659 141.42682 176.1875 139.125 C 176.78234 137.93532 179.11478 136.09885 180.0625 135.625 C 180.93057 135.19096 182.98209 135.25 183.9375 135.25 C 185.37858 135.25 186.87559 135.09375 188.34375 135.09375 C 189.54703 135.09375 191.17282 135.4375 192.5625 135.4375 C 195.70402 135.4375 198.77939 136.60355 201.71875 138.125 C 199.93055 136.21578 199.41128 135.50125 196.65625 134.8125 C 196.28222 134.719 195.90528 134.62476 195.53125 134.53125 C 193.88098 134.11867 192.25313 133.28984 190.46875 132.84375 C 186.82276 131.93224 184.14539 131.07269 180.9375 129.46875 C 179.55855 128.77927 178.96875 126.23046 178.96875 125 C 178.96875 123.51065 180.5782 122.22407 182.75 121.1875 C 182.75908 121.11235 182.77137 121.01452 182.78125 120.9375 C 181.21872 119.67077 180.67978 116.69136 181.5 116.28125 C 182.97145 116.86983 183.1875 117.32575 183.1875 116 C 183.1875 114.65248 183.5114 112.82686 183.1875 111.53125 C 182.80453 109.99937 182.40822 108.56644 181.78125 107.3125 C 181.38077 106.51154 180.79386 103.4094 179.53125 103.09375 C 178.28089 102.78116 176.77777 102.43576 175.34375 101.71875 C 174.58213 101.33794 172.15785 100.22519 171.96875 99.46875 C 171.77734 98.703124 170.6455 96.404829 169.625 96.34375 z M 166.34375 99.9375 C 168.86943 100.03948 170.95148 101.19111 174.09375 103.25 C 178.33967 106.03203 181.78776 109.32765 181.78125 110.59375 C 181.7535 115.98936 168.79293 133.56953 161.125 138.59375 C 153.3313 143.70038 152.21585 143.72678 143.84375 138.78125 C 132.78095 132.24629 126.7274 132.10198 121.625 138.25 C 116.26577 144.70748 122.66676 152.35498 133.90625 152.9375 L 142.21875 153.34375 L 134.3125 154.8125 C 129.95834 155.61304 124.43441 157.86276 122.0625 159.8125 C 119.69058 161.76224 112.80698 162.92809 106.75 162.40625 C 97.52369 161.61135 95.920202 162.41478 96.84375 167.28125 C 97.53059 170.90042 101.21607 173.46944 106.625 174.09375 C 118.38917 175.45159 117.53589 182.27064 104.625 190.25 C 85.75789 201.91052 82.757832 197.60638 91.71875 171.875 C 101.56952 143.58841 126.06469 115.9753 151.125 104.90625 C 159.09981 101.38381 163.09645 99.806386 166.34375 99.9375 z M 131.125 138.09375 C 136.2937 138.24277 143.81251 142.37511 143.8125 146.28125 C 143.8125 150.481 128.85016 150.13271 126.21875 145.875 C 125.04855 143.98158 125.52999 141.00127 127.28125 139.25 C 127.95632 138.57493 128.94065 138.22342 130.125 138.125 C 130.44576 138.09834 130.78042 138.08382 131.125 138.09375 z M 160.375 146.4375 C 162.17055 146.39849 162.55527 148.05084 163.71875 152.5 C 164.62966 155.98334 164.42443 158.67078 163.28125 158.46875 C 149.62315 156.05497 146.11911 151.56162 155.15625 148.09375 C 157.72865 147.10663 159.29767 146.4609 160.375 146.4375 z M 141.96875 157.15625 C 142.76793 157.14666 143.53662 157.2334 144.125 157.46875 C 147.10506 158.66078 147.75805 160.43863 151.15625 162.5625 C 153.97014 164.32119 157.27694 166.78976 159.4375 168.5625 C 159.4375 170.66243 160.62642 169.42259 162.09375 170.15625 C 162.95688 170.58782 163.53298 171.25172 164.1875 171.90625 C 164.36368 172.08243 164.52319 172.28311 164.71875 172.4375 C 166.30436 173.68929 170.56753 178.0247 172.84375 178.59375 C 174.17642 178.92692 175.56426 179.18838 176.875 179.84375 C 178.05222 180.43236 179.5555 181.15882 180.59375 181.9375 C 185.43792 185.57063 184.8125 185.73677 184.8125 192.15625 C 184.8125 195.26907 184.87053 198.02238 184.28125 200.96875 C 183.99268 202.4116 183.58635 203.56081 183.21875 205.03125 C 182.91014 206.26569 182.46312 206.87344 182 208.03125 C 181.60318 209.0233 180.34346 210.68764 179.34375 211.1875 C 178.05756 211.83059 176.57068 213.54278 174.59375 214.53125 C 173.11843 215.26891 171.7407 216.71325 169.84375 217.1875 C 168.88913 217.42615 167.53623 217.74627 166.65625 218.40625 C 165.6328 219.17384 163.16457 220.71875 161.90625 220.71875 C 160.84916 220.71875 159.80709 220.71875 158.75 220.71875 C 155.42507 220.71875 153.27044 217.90444 150.09375 217.375 C 148.87879 217.17251 147.41122 217.29812 146.21875 217 C 144.64798 216.6073 144.27755 215.90401 142.875 215.0625 C 140.09477 213.39436 138.52995 211.24872 136.1875 208.90625 C 134.01354 206.7323 132.85783 204.39847 131.4375 202.03125 C 129.86515 199.41067 128.51983 196.98858 126.15625 194.625 C 123.14007 191.60883 122.96875 187.79754 122.96875 183.71875 C 122.96875 182.43359 122.58684 180.10757 123.15625 178.96875 C 123.71376 177.85374 124.03125 177.34862 124.03125 175.59375 C 124.03125 174.36048 124.03125 173.13951 124.03125 171.90625 C 124.03125 170.5187 124.37311 168.70107 125.09375 167.5 C 125.85831 166.22575 126.37628 164.95661 127.375 163.625 C 128.30252 162.38831 130.71693 160.23483 132.65625 159.75 C 134.56709 159.27229 136.67277 158.4684 138.3125 157.8125 C 139.21076 157.4532 140.63678 157.17223 141.96875 157.15625 z M 105.625 165.15625 C 109.00554 165.15625 112.64234 166.57083 113.71875 168.3125 C 114.82874 170.1085 112.1585 171.5 107.5625 171.5 C 103.10555 171.5 99.468748 170.05416 99.46875 168.3125 C 99.46875 166.57083 102.24445 165.15625 105.625 165.15625 z M 207 167.78125 L 203.5625 177.625 C 201.00681 184.95626 201.0968 188.63966 203.9375 192.0625 C 207.23978 196.04151 209.3292 195.84501 219.5 190.65625 L 231.21875 184.65625 L 242.9375 203.40625 C 257.96004 227.43875 258.23457 239.10251 244.25 257.4375 C 238.53931 264.92471 227.73722 275.72682 220.25 281.4375 C 210.40409 288.94722 203.41073 291.79493 195 291.6875 C 183.23717 291.53725 135.59317 277.64349 129.28125 272.53125 C 127.39732 271.00539 121.88467 262.41223 117 253.4375 L 108.09375 237.125 L 120.40625 226.59375 C 138.2351 211.33187 146.63853 211.95502 134.3125 227.625 C 124.8364 239.67192 126.06571 254.59694 137.5 266.03125 C 142.74524 271.27649 150.9494 276.07828 155.71875 276.6875 C 169.91133 278.50042 190.63145 270.9853 205.90625 258.46875 L 220.21875 246.71875 L 218 258.96875 C 216.77902 265.7142 216.61856 270.48303 217.625 269.5625 C 220.11164 267.28812 225.86093 241.15625 223.875 241.15625 C 223.00452 241.15625 217.02032 245.35406 210.5625 250.46875 C 204.10468 255.58344 194.9976 261.50455 190.34375 263.625 C 182.59208 267.15689 180.94448 266.5629 170.78125 256.6875 C 154.17891 240.55536 155.67506 230.91912 176.25 221.40625 C 182.78125 218.38651 188.125 213.76568 188.125 211.125 C 188.125 205.47661 194.62796 205.09976 211.375 209.75 C 225.99382 213.80928 229.15495 211.74971 221.40625 203.1875 C 214.46121 195.51332 207.71862 194.58784 213.875 202.15625 C 217.7008 206.85955 217.51251 207.25946 212.40625 205.34375 C 209.21588 204.14682 203.29209 203.15625 199.21875 203.15625 C 193.43798 203.15625 191.29562 200.90812 189.53125 192.875 C 188.28801 187.21459 187.10766 182.16211 186.90625 181.65625 C 186.70485 181.15039 191.1606 177.84 196.78125 174.28125 L 207 167.78125 z M 57.875 168.3125 C 59.48727 168.3125 75.319423 192.56426 93.0625 222.1875 C 110.80558 251.81075 127.86267 277.40018 130.96875 279.0625 C 136.06029 281.78741 136.22813 283.74962 132.84375 298.84375 C 129.10054 315.53819 129.07299 315.59153 115.875 316.5625 C 100.64226 317.68316 100.37349 316.92256 107.875 293.125 L 113.125 276.46875 L 99.40625 253.28125 C 91.85868 240.52266 78.033373 218.1504 68.65625 203.5625 C 53.21709 179.54392 49.784758 168.3125 57.875 168.3125 z M 114.6875 190.6875 L 119.75 198.375 C 126.4997 208.67634 126.23536 210.07284 115.90625 219.96875 C 111.02137 224.64877 106.19517 228.5 105.15625 228.5 C 103.36191 228.5 89.968748 207.44592 89.96875 204.625 C 89.96875 203.88911 95.544592 200.43742 102.34375 196.96875 L 114.6875 190.6875 z M 148 250.65625 C 158.22397 250.65625 163.45467 252.52968 168.59375 258 C 172.38068 262.03101 175.46876 266.99768 175.46875 269.0625 C 175.46875 276.01904 149.33501 273.21504 141.4375 265.40625 C 130.61269 254.70303 132.40194 250.65625 148 250.65625 z M 142.125 282.3125 C 142.60314 282.3125 153.91138 285.89585 167.25 290.25 C 195.54416 299.48615 199.27598 299.73613 211.59375 293.3125 C 220.22352 288.81213 221.30366 288.94488 228.28125 295.5 C 232.37946 299.35007 234.64182 303.50486 233.3125 304.71875 C 231.98319 305.93263 214.49792 309.2353 194.46875 312.0625 C 174.43958 314.88971 152.71876 317.19973 146.1875 317.1875 C 135.83925 317.16818 134.31251 316.20579 134.3125 309.71875 C 134.3125 302.81899 140.15446 282.31251 142.125 282.3125 z M 142.5625 295 C 141.878 295 140.50251 297.13751 139.5 299.75 C 138.49748 302.3625 139.03175 304.50001 140.71875 304.5 C 142.40576 304.5 143.81251 302.36251 143.8125 299.75 C 143.8125 297.1375 143.24699 295.00001 142.5625 295 z "
       id="path2227" />
  </g>
  <g
     inkscape:groupmode="layer"
     id="layer4"
     inkscape:label="blue"
     style="display:inline">
    <path
       style="fill:#00329b;display:inline"
       d="M 155.96875,1.75 C 151.38706,2.0241401 147.33821,7.4923981 145.25,17 L 143.09375,26.75 L 135.3125,16.78125 C 131.0259,11.303978 125.48626,6.8125 123,6.8125 C 116.3143,6.8125 117.30837,23.7116 124.53125,32.59375 L 130.625,40.0625 L 120.59375,44.84375 C 109.03755,50.33204 104.7137,63.564818 114.28125,64.1875 C 122.64847,64.73206 122.54317,64.7488 130.5625,62.3125 C 137.82704,60.10552 137.85604,60.207358 132.9375,69.71875 C 126.3535,82.45079 126.47794,82.812498 137.09375,82.8125 C 138.5439,82.8125 142.11593,80.20148 143.19373,80.357321 C 144.65093,79.257652 146.46324,77.51838 147.3125,77.09375 C 149.4614,76.019307 154.81965,76.40625 156.96875,76.40625 C 159.82595,76.406249 164.03688,75.154844 167.28125,74.34375 C 167.80904,74.211803 168.29736,74.063585 168.75,73.90625 C 169.84573,72.895607 171.24522,72.068357 172.9375,71.53125 L 179.875,69.34375 L 172.9375,63.6875 C 164.41529,56.78663 164.13173,54.312502 171.90625,54.3125 C 179.67505,54.3125 186.21526,46.287051 183.71875,39.78125 C 182.2712,36.00901 178.78815,34.980851 170.59375,35.9375 C 161.42942,37.00739 159.81428,36.353998 161.59375,32.3125 C 166.49187,21.18797 166.45638,7.9884251 161.5,3.875 C 159.62977,2.3228507 157.76158,1.6427278 155.96875,1.75 z M 39.34375,99.125 C 38.12362,99.13495 36.799287,99.960169 34.90625,101.53125 C 32.05269,103.8995 29.8125,110.49266 29.8125,116.53125 L 29.8125,127.3125 L 20.09375,122.3125 C 8.4145,116.27292 3.8158101,117.31221 2.4375,126.34375 C 1.77205,130.70419 4.3684902,135.45441 9.75,139.6875 C 18.83025,146.83003 18.8486,146.77077 8.4375,152.1875 C 4.51875,154.22636 1.3124999,158.84903 1.3125,162.46875 C 1.3125,169.28464 6.80253,169.50959 25.84375,163.5 C 32.35022,161.4465 32.968752,162.25294 32.96875,172.90625 C 32.96875,177.59687 33.172504,180.39368 33.90625,181.875 C 34.078531,181.83536 34.22566,181.78612 34.40625,181.75 C 36.076861,178.40879 41.813439,180.59352 45.4375,179.6875 C 47.833636,179.08846 49.361839,177.30577 50.625,175.59375 C 50.626672,175.584 50.623235,175.57226 50.625,175.5625 C 50.847512,174.33226 51.854678,173.02595 53.625,171.3125 C 54.852389,169.48479 56.013866,167.70488 57.125,166.59375 C 59.430102,164.28866 64.38034,162.91317 67.21875,161.5625 C 67.769288,160.33201 68.816503,159.15224 70.34375,157.625 C 75.3477,152.62105 75.226161,152.18009 68.5625,150.4375 C 59.70907,148.12227 59.723518,147.0324 68.59375,139.78125 C 74.35065,135.07516 74.952762,133.1627 71.71875,129.875 C 68.61744,126.7222 65.57664,126.6095 58.25,129.375 C 48.80779,132.93903 48.812498,132.92569 48.8125,121.15625 C 48.8125,114.67376 46.830282,106.65881 44.40625,103.34375 C 42.29989,100.46313 40.912489,99.112208 39.34375,99.125 z "
       id="path2225"
       sodipodi:nodetypes="ccccscccsssscsssccccsssssccscccssssssccssscscsssssssc"
       inkscape:export-filename="/home/cdodt/Desktop/dexter300x405.png"
       inkscape:export-xdpi="95.901169"
       inkscape:export-ydpi="95.901169" />
  </g>
  <g
     inkscape:groupmode="layer"
     id="layer2"
     inkscape:label="black"
     style="display:inline"
     sodipodi:insensitive="true">
    <path
       style="fill:#070908;display:inline"
       d="M 681.60861,447.16574 C 677.8477,439.76366 670.03031,426.27518 664.23662,417.19137 L 653.70265,400.67534 L 632.21862,402.51638 C 611.49207,404.2925 610.22165,404.90274 596.18669,419.82408 C 588.18535,428.33076 580.09503,435.29074 578.2082,435.29074 C 576.32136,435.29074 571.93756,431.68024 568.46641,427.26739 L 562.15523,419.24401 L 551.61157,425.67221 C 545.81256,429.2077 539.59584,432.10574 537.79663,432.11223 C 535.99743,432.11876 541.34118,418.24546 549.67163,401.28274 C 566.12767,367.7744 568.89916,352.95741 558.71077,352.95741 C 548.90683,352.95741 541.89761,343.69456 543.49027,332.84313 C 545.07655,322.0351 531.19349,298.37291 524.60419,300.65383 C 522.35888,301.43105 521.52674,300.09291 522.56798,297.37947 C 523.53646,294.85567 522.66729,292.79074 520.63649,292.79074 C 518.6057,292.79074 517.81966,291.37413 518.88973,289.64271 C 519.95981,287.9113 516.99877,281.4647 512.30965,275.31695 C 506.15661,267.24989 502.14214,264.66032 497.88428,266.01171 C 492.8579,267.60702 491.98458,266.1573 491.98458,256.21814 C 491.98458,246.00309 491.03941,244.32012 485.47027,246.25561 C 462.57157,254.21381 470.76093,248.21525 482.69135,243.45828 C 492.14889,239.68731 494.71579,238.36362 495.75176,249.93912 L 496.73458,260.92083 L 510.07444,250.73079 C 517.41136,245.12626 523.46761,239.74708 523.53277,238.77704 C 523.59793,237.80701 519.7325,235.55992 514.94292,233.78351 L 506.23458,230.55367 L 518.10958,225.41713 C 531.39114,219.67217 533.68858,213.58522 522.85958,213.25674 C 520.79796,213.1942 509.43994,213.57621 520.90338,211.02181 C 526.94009,209.67665 528.04353,210.14039 531.11261,213.55188 C 533.99384,216.75456 533.97065,218.06031 527.60958,223.06478 C 518.60528,230.14877 518.7374,231.42851 527.59083,233.74374 C 534.25449,235.48633 534.36473,235.93441 529.36078,240.93836 C 524.35683,245.9423 524.43656,247.0822 530.64101,259.24103 L 537.25754,272.20741 L 540.52255,264.29074 C 555.96732,226.84184 577.89169,197.95972 599.26382,186.90776 C 606.50912,183.16107 606.33085,180.71133 606.78498,174.17339 C 607.68619,161.19918 603.38043,166.12408 596.11542,166.12408 C 585.44552,166.12408 585.35259,165.79882 592.22529,152.50849 C 595.10768,146.93456 595.62702,146.71582 595.07281,145.55329 C 593.71642,142.70804 589.44273,141.93314 593.36009,141.9445 C 597.73098,141.95717 595.27187,141.08825 596.15661,140.27922 C 599.34037,137.36792 598.90365,146.1585 598.24539,148.77109 C 594.28732,164.48051 591.7919,163.10812 602.02625,159.88782 C 606.81583,158.38075 614.84728,156.24155 619.87393,155.13404 L 629.01327,153.12039 L 620.07314,143.7889 L 611.133,134.45741 L 622.01712,134.40892 C 628.00339,134.38225 635.03875,132.95725 637.65125,131.24225 C 645.10445,126.34954 635.25334,121.24653 622.60958,123.45046 C 610.76589,125.51493 610.75933,125.50313 617.0484,113.44438 C 625.20931,97.796538 621.01189,84.761332 610.59586,93.405868 C 607.96191,95.591848 605.98458,95.875018 605.98458,94.066228 C 605.98458,92.324558 608.12208,89.12559 610.73458,86.957408 C 621.88121,77.706521 628.6582,97.363748 620.61789,115.62479 C 618.83842,119.66629 620.43889,120.31031 629.60322,119.24042 C 637.79763,118.28377 641.27585,119.29946 642.7234,123.0717 C 645.21991,129.5775 638.69897,137.62408 630.93017,137.62408 C 623.15566,137.62408 623.42335,140.09468 631.94556,146.99555 L 638.90654,152.63221 L 631.94556,154.84154 C 620.98919,158.31895 622.54919,173.45866 634.75978,182.15337 C 643.24163,188.19298 644.28041,190.47098 642.61085,199.37046 C 640.73369,209.37662 641.00942,209.67858 653.90699,211.74099 C 672.83689,214.768 691.48458,233.7552 691.48458,250.00273 C 691.48458,258.14428 694.08312,264.87467 699.88111,271.75028 C 723.61571,299.89621 722.38083,331.41657 696.58108,355.98374 L 685.08906,366.92674 L 699.94639,382.01088 L 714.80371,397.09502 L 725.31672,390.59763 C 731.09887,387.02406 737.05723,384.57435 738.55753,385.15382 C 740.05783,385.7333 733.62633,397.91267 724.26532,412.21907 C 712.33197,430.45679 705.83653,437.69019 702.5316,436.42197 C 697.19429,434.37383 696.21739,438.75688 700.95522,443.49472 C 704.3443,446.88378 696.65503,460.62408 691.36937,460.62408 C 689.76186,460.62408 685.36952,454.56783 681.60861,447.16574 z M 591.04291,383.37175 C 591.82701,378.3536 592.4481,363.93716 592.81297,362.6166 L 596.07306,364.34751 L 593.00226,391.74908 C 593.29162,399.73204 594.36393,400.45741 605.8757,400.45741 C 612.78249,400.45741 634.51373,398.14787 654.16737,395.3251 C 673.821,392.50233 691.61041,390.12733 693.6994,390.04732 C 697.59838,389.89799 686.65653,371.95741 682.66648,371.95741 C 681.53706,371.95741 674.86534,374.1294 667.84045,376.78405 C 656.73764,380.97971 633.08314,376.21542 628.13692,375.01601 C 628.13692,375.01601 611.11159,370.10753 608.22763,368.52615 C 605.34368,366.94476 618.66675,369.75318 629.46541,371.96839 C 640.26407,374.1836 646.19672,375.30584 646.19672,375.30584 C 663.59027,376.61934 665.87745,374.81513 680.05617,365.31413 C 699.02278,352.60482 713.65124,330.70938 713.65124,315.03003 C 713.65124,307.49347 709.84267,297.58711 702.32383,285.56666 C 691.06101,267.56066 687.30875,264.57128 683.56791,270.62408 C 682.4915,272.36574 678.8449,273.79074 675.46436,273.79074 C 667.20814,273.79074 667.70946,276.47443 678.02624,287.50515 L 686.73458,296.8161 L 677.65681,294.65037 C 651.79829,288.48116 650.47927,288.56484 644.01344,296.7848 C 640.56933,301.16329 634.30877,305.60973 630.1011,306.66579 C 625.44099,307.83541 621.20428,312.16161 619.26167,317.73419 C 616.34326,326.10594 617.19,327.97382 629.2369,339.73933 C 643.84154,354.00283 644.41066,353.95549 666.60694,336.63063 C 680.52841,325.76451 682.09054,325.56869 681.61724,334.74908 C 681.33511,340.22134 680.91079,340.57207 679.78798,336.2611 C 678.4909,331.28102 677.01479,331.67843 666.69699,339.78555 C 648.49855,354.08479 635.92642,359.3327 621.1835,358.78396 C 608.58212,358.31493 608.39349,358.18789 618.65125,357.07859 C 638.48767,354.93342 639.50883,353.65952 629.64494,343.36385 C 622.30739,335.70509 618.02686,333.95741 606.60612,333.95741 C 593.63894,333.95741 592.71487,334.49569 594.37441,341.08241 C 596.10821,347.96383 596.01258,347.99727 591.57708,342.0605 C 585.30541,333.66608 585.83089,324.80513 593.32975,312.50587 C 600.91508,300.06479 601.02229,299.12408 594.85474,299.12408 C 592.21667,299.12408 584.78224,303.95917 578.3338,309.86873 L 566.60936,320.61337 L 575.41128,336.78539 C 580.25233,345.68 587.41127,356.60128 585.86263,358.30229 C 584.20471,360.12333 578.84443,348.6054 577.50058,345.99552 C 575.5047,342.1193 566.4943,328.32912 559.99917,317.60986 C 547.00892,296.17133 529.95311,267.20332 525.46266,258.46488 C 520.32786,248.47252 519.70753,248.17904 514.21947,253.14568 C 508.62826,258.20565 508.85564,259.07531 520.29646,276.38821 C 526.83351,286.28043 541.17141,309.29891 552.15846,327.54037 L 572.13491,360.70667 L 566.89308,375.46538 C 558.66605,398.62913 559.44694,400.98257 574.9834,399.84782 C 586.11683,399.03466 590.25882,388.38991 591.04291,383.37175 z M 599.90125,383.30463 C 599.76375,379.96644 600.51218,378.09613 601.56444,379.14838 C 602.6167,380.20064 602.7292,382.93189 601.81444,385.21783 C 600.80356,387.74398 600.05319,386.99362 599.90125,383.30463 z M 586.49747,359.99877 C 584.19995,357.50877 579.41008,346.30838 587.66302,356.31623 C 588.5137,357.3478 589.33448,358.65881 596.23955,361.56218 C 599.60312,362.97646 599.12226,363.2477 602.83133,364.62334 C 616.14128,369.5598 618.35013,372.48283 601.84465,367.14808 C 597.00087,365.58252 590.74421,363.26285 586.49747,359.99877 z M 675.90124,348.4713 C 679.30911,343.06498 679.61438,335.13799 680.66664,336.19025 C 681.7189,337.24251 681.53595,338.20107 677.81444,350.38449 C 677.01957,352.98671 676.05319,352.16028 675.90124,348.4713 z M 558.48458,346.97489 C 558.48458,345.42617 555.68199,340.79492 552.2566,336.68323 C 545.60965,328.70449 543.53819,333.28073 549.096,343.66559 C 552.44482,349.92293 558.48458,352.05183 558.48458,346.97489 z M 575.61994,302.58437 C 583.87927,293.96348 584.18834,292.68146 580.47978,282.42562 L 576.51935,271.47324 L 562.76188,278.17366 C 555.19528,281.85889 548.99996,286.13088 548.9945,287.66697 C 548.97975,291.82034 561.80221,311.79074 564.48373,311.79074 C 565.7575,311.79074 570.76879,307.64787 575.61994,302.58437 z M 632.07701,295.16574 C 640.63261,288.57225 640.95642,268.67817 632.45505,271.94045 C 624.60076,274.95442 612.31791,265.41503 612.31791,256.30108 C 612.31791,249.53854 610.87753,248.45741 601.86791,248.45741 C 589.30455,248.45741 583.81791,253.24858 583.81791,264.21947 C 583.81791,274.60167 591.32161,285.332 603.97917,293.05021 C 615.48072,300.06352 624.81029,300.76596 632.07701,295.16574 z M 669.88342,282.29087 C 664.28614,276.51594 660.24364,271.17219 660.90009,270.41587 C 661.55654,269.65955 663.05249,265.04729 664.22443,260.16641 C 666.10466,252.33565 665.69157,251.65669 660.71157,254.39271 C 646.2375,262.34477 643.98284,265.65025 646.55585,275.14591 C 648.60747,282.71741 651.65088,285.10965 663.15139,288.19066 C 670.89714,290.26575 677.87037,292.14968 678.64744,292.37715 C 679.42452,292.60463 675.48071,288.0658 669.88342,282.29087 z M 570.11671,270.16862 C 576.64789,264.74822 575.07069,257.99076 567.19291,257.64176 C 560.38152,257.34 560.41636,257.2198 567.98458,254.91098 C 574.8128,252.8279 575.13933,252.17165 570.35958,250.13783 C 567.31166,248.84092 562.6064,248.62845 559.90344,249.66567 C 556.84808,250.83813 555.79202,250.25218 557.11178,248.11676 C 558.27932,246.22764 563.36788,245.28863 568.41969,246.03008 C 573.71993,246.80799 579.08272,245.59737 581.09909,243.16779 C 583.02096,240.85208 588.69391,238.95741 593.70566,238.95741 C 600.65241,238.95741 602.81791,237.47879 602.81791,232.73549 C 602.81791,224.84798 590.97405,217.86794 586.01128,222.83071 C 581.93841,226.90358 585.58333,231.29145 594.90125,233.5327 C 599.88945,234.73252 599.46738,235.13409 592.91399,235.42341 C 581.3637,235.93333 575.63799,228.58971 582.35147,221.87624 C 588.76453,215.46318 591.74258,215.50211 602.98984,222.14603 C 614.78242,229.11208 624.51792,224.34702 634.39376,206.77533 C 641.13481,194.78125 641.20043,193.96211 635.89014,188.09431 C 628.84306,180.30738 626.79924,180.41008 607.56791,189.51752 C 581.19824,202.00548 555.72912,232.28918 548.71809,259.49205 C 546.91566,266.4855 544.69556,274.76946 543.78453,277.90086 C 542.22034,283.2773 542.79036,283.31761 554.0218,278.62481 C 560.56334,275.89159 567.80604,272.0863 570.11671,270.16862 z M 678.18458,263.65741 C 680.27458,261.56741 681.98458,255.35252 681.98458,249.84654 C 681.98458,240.83892 681.18008,239.98945 673.95695,241.37024 C 664.62091,243.15494 653.48458,234.68519 653.48458,225.79995 C 653.48458,219.20838 649.58558,218.43176 640.60973,223.23549 C 632.66966,227.48489 632.82566,237.23333 641.01783,248.73817 C 647.31065,257.57562 647.88757,257.73928 656.69391,253.18535 C 669.31017,246.66123 670.38014,247.10462 668.20958,257.95741 C 666.18303,268.09016 670.99954,270.84245 678.18458,263.65741 z M 624.06543,235.79704 C 623.31326,225.04567 623.07513,224.9415 612.5628,230.76533 L 604.89102,235.0155 L 614.14613,240.02633 C 619.23644,242.78229 623.70013,245.09423 624.06543,245.16396 C 624.43074,245.23369 624.43074,241.01857 624.06543,235.79704 z M 620.23458,170.65356 C 620.23458,164.41624 618.501,159.99261 614.69291,160.39358 C 608.89617,161.00394 607.24886,166.98187 611.12474,177.08225 C 614.2053,185.11007 620.23458,180.85529 620.23458,170.65356 z M 460.31792,245.40216 C 460.31792,241.9801 463.52417,237.51208 467.44292,235.47322 C 477.85681,230.05504 477.85001,230.12182 468.71801,222.93859 C 464.09796,219.30445 460.54711,213.32122 460.31792,211.63944 C 459.79302,207.78782 460.54983,204.90515 462.46403,203.71757 C 473.11576,197.10915 461.88875,206.29878 462.03463,208.0927 C 462.31066,211.4871 466.99087,216.37073 473.09941,220.43045 L 485.8809,230.70194 L 474.68274,235.16836 C 462.00428,240.22521 460.52758,249.81141 471.1415,247.61618 C 481.74088,245.42396 476.25325,250.82309 469.02625,251.19283 C 462.33524,251.53515 460.31792,250.18314 460.31792,245.40216 z M 503.65258,212.21798 C 504.62693,206.21376 504.4216,197.30684 503.19629,192.42481 C 501.02548,183.77562 500.84893,183.71042 496.29956,189.8779 C 493.39203,193.81958 492.13809,200.68793 492.97572,208.08405 L 494.32077,219.96068 L 482.86101,213.11894 C 477.88599,210.14873 474.47907,206.68605 471.27388,205.58441 C 466.50648,203.94583 459.72935,204.67977 466.60489,201.32662 C 469.18356,200.06902 470.00761,200.89286 479.47517,205.78873 L 488.81792,210.62005 L 488.81792,199.84314 C 488.81792,193.80455 491.05703,187.20793 493.91059,184.83968 C 498.23753,181.24864 499.66595,181.51942 503.41059,186.64052 C 505.83462,189.95558 507.81792,198.17964 507.81792,204.91621 C 507.81792,212.27537 509.30608,214.3666 511.3392,213.43433 C 517.12363,210.78193 527.39996,211.60209 521.22449,213.32288 C 516.74535,214.57098 511.1133,217.60304 508.01614,219.85132 C 505.56818,221.62834 502.02414,222.25285 503.65258,212.21798 z M 567.57633,140.79987 C 568.18937,136.49376 573.52454,131.02913 579.60551,128.14114 L 589.6431,123.37408 L 583.56384,115.89826 C 576.24918,106.90325 575.32211,90.124074 582.13978,90.124074 C 584.70014,90.124074 590.00284,94.462938 593.92356,99.765998 C 600.20037,108.25584 602.46302,109.0398 603.29579,103.72433 C 605.48095,89.776775 609.64849,88.578918 609.28881,91.918163 C 607.49404,108.5803 602.42126,119.51053 594.27614,107.52391 C 590.1402,101.43734 585.38263,96.457408 583.70375,96.457408 C 577.77028,96.457408 580.75549,108.11802 588.56791,115.45741 C 597.90513,124.22927 598.60864,128.12408 590.85585,128.12408 C 584.3953,128.12408 570.34474,136.70276 571.15125,140.76967 C 572.38462,146.98902 575.42492,146.10017 581.24698,145.42112 C 584.2968,145.06541 605.0723,133.69066 594.35456,144.36456 C 592.14676,146.56333 585.68216,149.31131 579.83527,149.55629 C 568.99222,150.01061 566.66918,147.17193 567.57633,140.79987 z "
       id="path2223"
       sodipodi:nodetypes="ccccsscccssssssssssssscccscccsssssscccssssssssscccccsssssssssscccssssscccccssssscccccsssssczzcssssscccsssssssssssssssscccsssssscccszcssccssssccssccsscccccssccsssssccssssssccssssssssssssssssssssccssssssscccccsccssccssssscccssccsscccsscccsssssscccccssssssssssssc"
       inkscape:export-filename="/home/cdodt/Desktop/dexter300x405.png"
       inkscape:export-xdpi="95.901169"
       inkscape:export-ydpi="95.901169"
       transform="translate(-459.01793,-83.297895)" />
  </g>
</svg>
