<?xml version="1.0" encoding="UTF-8" standalone="no"?>
<!-- Created with Inkscape (http://www.inkscape.org/) -->

<svg
   xmlns:dc="http://purl.org/dc/elements/1.1/"
   xmlns:cc="http://creativecommons.org/ns#"
   xmlns:rdf="http://www.w3.org/1999/02/22-rdf-syntax-ns#"
   xmlns:svg="http://www.w3.org/2000/svg"
   xmlns="http://www.w3.org/2000/svg"
   xmlns:xlink="http://www.w3.org/1999/xlink"
   xmlns:sodipodi="http://sodipodi.sourceforge.net/DTD/sodipodi-0.dtd"
   xmlns:inkscape="http://www.inkscape.org/namespaces/inkscape"
   width="162.86964"
   height="38.91325"
   id="svg2"
   version="1.1"
   inkscape:version="0.47 r22583"
   inkscape:export-filename="/home/cdodt/wc/Personal/goonsite-cms/halfrest/whatcountry.png"
   inkscape:export-xdpi="171.27"
   inkscape:export-ydpi="171.27"
   sodipodi:docname="New document 1">
  <defs
     id="defs4">
    <linearGradient
       id="linearGradient3648">
      <stop
         style="stop-color:#68ae1d;stop-opacity:1;"
         offset="0"
         id="stop3650" />
      <stop
         id="stop3656"
         offset="0.5"
         style="stop-color:#68ae1d;stop-opacity:0.14649682;" />
      <stop
         style="stop-color:#68ae1d;stop-opacity:1;"
         offset="1"
         id="stop3652" />
    </linearGradient>
    <inkscape:perspective
       sodipodi:type="inkscape:persp3d"
       inkscape:vp_x="0 : 526.18109 : 1"
       inkscape:vp_y="0 : 1000 : 0"
       inkscape:vp_z="744.09448 : 526.18109 : 1"
       inkscape:persp3d-origin="372.04724 : 350.78739 : 1"
       id="perspective10" />
    <radialGradient
       inkscape:collect="always"
       xlink:href="#linearGradient3648"
       id="radialGradient3654"
       cx="192.58154"
       cy="437.88162"
       fx="192.58154"
       fy="437.88162"
       r="106.27148"
       gradientTransform="matrix(1,0,0,0.0637463,0,409.96829)"
       gradientUnits="userSpaceOnUse" />
  </defs>
  <sodipodi:namedview
     id="base"
     pagecolor="#ffffff"
     bordercolor="#666666"
     borderopacity="1.0"
     inkscape:pageopacity="0.0"
     inkscape:pageshadow="2"
     inkscape:zoom="5.6464172"
     inkscape:cx="61.249357"
     inkscape:cy="19.079988"
     inkscape:document-units="px"
     inkscape:current-layer="layer1"
     showgrid="false"
     inkscape:window-width="1800"
     inkscape:window-height="1053"
     inkscape:window-x="120"
     inkscape:window-y="0"
     inkscape:window-maximized="1" />
  <metadata
     id="metadata7">
    <rdf:RDF>
      <cc:Work
         rdf:about="">
        <dc:format>image/svg+xml</dc:format>
        <dc:type
           rdf:resource="http://purl.org/dc/dcmitype/StillImage" />
        <dc:title></dc:title>
      </cc:Work>
    </rdf:RDF>
  </metadata>
  <g
     inkscape:label="Layer 1"
     inkscape:groupmode="layer"
     id="layer1"
     transform="translate(-64.22613,-487.42732)">
    <path
       style="fill:none;stroke:none"
       d="m 75.194342,505.87102 c 0.1586,-0.94641 1.531899,-2.32622 1.763943,-3.2544 0.107034,-0.42813 -1.311416,-0.47151 -1.171861,-0.89017 0.06241,-0.18723 0,-0.39472 0,-0.59208 0.19736,-0.39472 0.394721,-0.78944 0.592081,-1.18417 0.716903,-1.4338 0.280027,-0.8721 1.184163,-1.77624 0.19736,-0.19736 0.342438,-0.46726 0.592081,-0.59208 0.176525,-0.0883 0.394721,0 0.592082,0 0.592081,0 1.184163,0 1.776244,0 2.589982,0 1.201841,-0.1436 4.14457,0.59208 0.442389,0.1106 3.53785,0.82013 4.14457,1.18416 0.47867,0.2872 0.835446,0.74827 1.184163,1.18417 1.783999,2.22999 0.841811,1.34127 1.776244,4.14457 2.292262,6.87678 -0.05898,-1.33753 2.960407,6.51289 1.456601,3.78716 0.625709,4.36178 2.960408,7.69706 0.640236,0.91462 1.533888,1.6266 2.368323,2.36833 2.49631,2.21893 3.18268,2.88644 6.5129,3.55248 1.75247,0.3505 3.55723,0.35589 5.32873,0.59209 1.18997,0.15866 2.35553,0.5 3.55249,0.59208 3.78099,0.29084 5.02511,-0.16363 8.88122,-0.59208 6.32054,-0.70229 5.42048,-0.0367 11.24955,-2.36833 2.45848,-0.98339 4.69444,-2.45679 7.10498,-3.55249 0.96755,-0.4398 2.04904,-0.63735 2.9604,-1.18416 1.08364,-0.65018 1.92513,-1.64363 2.96041,-2.36833 2.8476,-1.99332 2.59809,-1.44338 5.32873,-2.9604 7.16544,-3.9808 -1.14994,0.18215 5.92082,-2.96041 0.80655,-0.35847 1.5419,-0.87425 2.36832,-1.18416 3.06077,-1.14779 1.87583,-0.20843 5.32874,-0.59209 0.80876,-0.0899 1.56087,-0.49114 2.36832,-0.59208 0.78335,-0.0979 1.5828,0.0786 2.36833,0 7.21865,-0.72186 0.45321,-0.59208 5.92081,-0.59208 0.59208,0 0.91824,0.8889 1.50437,0.9726 1.77245,0.25321 4.00961,0.0965 5.60061,0.80365 0.80655,0.35846 -0.49864,4.13355 2.41597,2.4031 0.75894,-0.4506 0.2325,-0.28551 1.48124,0.758 -1.21326,-2.67007 0.38407,-0.28635 1.09499,1.18826 0.19736,0.19736 2.21668,0.99661 2.87722,1.99115 0.49291,0.74215 5.43766,-1.17916 5.12767,-0.26154 -0.0632,0.187 -1.41542,0.47829 -1.21806,0.47829 0.39472,0 1.07691,-0.41078 1.44339,-0.55738 0.6607,-0.26428 0.49318,-0.25825 3.82146,-0.75415 5.20749,-0.7759 4.14089,-1.33728 4.56002,-0.88793 0.32809,0.35174 2.09053,-2.62705 3.72282,-3.29917 1.7313,-0.71289 1.53671,-1.2265 3.28982,-1.88392 1.40735,-0.52775 1.34008,-1.9195 1.57961,-1.54306 2.085,3.27679 5.67446,-0.94073 9.4651,-1.48225"
       id="path2829"
       sodipodi:nodetypes="csscssssssssssssssssssssssssssssssccssssssssss" />
    <text
       xml:space="preserve"
       style="font-size:14px;font-style:normal;font-weight:normal;fill:#000000;fill-opacity:1;stroke:none;font-family:Bitstream Vera Sans"
       id="text3704"><textPath
         xlink:href="#path2829"
         id="textPath3708"><tspan
   style="fill:#46ab15;fill-opacity:1"
   id="tspan3706">What country is this site in?</tspan></textPath></text>
  </g>
</svg>
